<svg xmlns="http://www.w3.org/2000/svg" width="143.245" height="359.841" viewBox="0 0 143.245 359.841"><path d="M7968.625,2767.662l-1.993-.169.521-6.148,1.993.169Zm1.112-13.123-1.993-.169.591-6.975,1.993.169Zm1.182-13.95-1.993-.169.591-6.975,1.993.169Zm1.182-13.95-1.993-.169.591-6.975,1.993.169Zm1.182-13.95-1.993-.169.591-6.975,1.993.169Zm1.182-13.95-1.993-.169.591-6.975,1.993.169Zm1.182-13.95-1.993-.169.591-6.975,1.993.169Zm1.182-13.95-1.993-.169.591-6.975,1.993.169Zm1.182-13.95-1.993-.169.591-6.975,1.993.169Zm1.182-13.95-1.993-.169.591-6.975,1.993.169Zm1.182-13.95-1.993-.169.591-6.975,1.993.169Zm1.182-13.95-1.993-.169.591-6.975,1.993.169Zm1.182-13.95-1.993-.169.591-6.975,1.993.169Zm1.182-13.95-1.993-.169.591-6.975,1.993.169Zm1.182-13.95-1.993-.169.591-6.975,1.993.169Zm1.053-13.945-1.991-.187a56.79,56.79,0,0,1,1.138-7.03l1.952.437A54.746,54.746,0,0,0,7986.156,2559.244Zm2.957-13.422-1.9-.635c.738-2.2,1.6-4.427,2.565-6.609l1.829.809C7990.671,2541.512,7989.831,2543.677,7989.113,2545.822Zm5.565-12.628-1.752-.964c1.121-2.038,2.353-4.076,3.663-6.059l1.669,1.1C7996.977,2529.212,7995.773,2531.2,7994.678,2533.194Zm7.613-11.545-1.58-1.226c1.421-1.833,2.945-3.659,4.53-5.428l1.49,1.334C8005.177,2518.064,8003.684,2519.854,8002.291,2521.649Zm9.234-10.326-1.4-1.429c1.654-1.618,3.4-3.227,5.2-4.781l1.309,1.512C8014.869,2508.152,8013.15,2509.733,8011.525,2511.323ZM8022,2502.2l-1.24-1.569c1.747-1.38,3.574-2.776,5.585-4.269l1.192,1.606C8025.543,2499.451,8023.732,2500.835,8022,2502.2Zm11.187-8.328-1.159-1.63c1.738-1.235,3.617-2.55,5.745-4.022l1.138,1.645C8036.792,2491.334,8034.919,2492.645,8033.188,2493.875Zm11.49-7.967-1.128-1.651,2.377-1.623q1.7-1.159,3.4-2.324l1.129,1.651q-1.705,1.166-3.405,2.325Zm11.554-7.92-1.14-1.643c2.089-1.449,3.96-2.763,5.718-4.016l1.161,1.629C8060.206,2475.215,8058.329,2476.533,8056.232,2477.988Zm11.419-8.154-1.191-1.607c1.947-1.444,3.815-2.865,5.551-4.223l1.232,1.575C8071.494,2466.948,8069.612,2468.38,8067.651,2469.834Zm11.061-8.677-1.285-1.533c1.838-1.541,3.6-3.081,5.237-4.578l1.35,1.476C8082.355,2458.039,8080.571,2459.6,8078.712,2461.157Zm10.382-9.528-1.427-1.4c1.669-1.7,3.249-3.416,4.7-5.1l1.517,1.3C8092.4,2448.149,8090.794,2449.9,8089.094,2451.629Zm9.181-10.748-1.619-1.175c1.386-1.91,2.658-3.852,3.78-5.771l1.727,1.01C8101.008,2436.921,8099.7,2438.918,8098.275,2440.882Zm7.125-12.269-1.832-.8a52.9,52.9,0,0,0,2.348-6.45l1.92.558A54.883,54.883,0,0,1,8105.4,2428.613Zm3.949-13.667-1.979-.287a49.667,49.667,0,0,0,.507-6.838l2,.01A51.6,51.6,0,0,1,8109.349,2414.946Z" transform="translate(-7966.632 -2407.821)" fill="#bad1ff"/></svg>