<svg xmlns="http://www.w3.org/2000/svg" width="125.746" height="151.429" viewBox="0 0 125.746 151.429"><path d="M8107.747,2559.218a49.225,49.225,0,0,0-.971-6.786l1.955-.421a51.119,51.119,0,0,1,1.01,7.063Zm-2.871-13.376a55.629,55.629,0,0,0-2.746-6.3l1.782-.909a57.729,57.729,0,0,1,2.845,6.526Zm-6.211-12.253c-1.216-1.859-2.578-3.742-4.047-5.6l1.568-1.241c1.506,1.9,2.9,3.835,4.152,5.745Zm-8.549-10.858c-1.5-1.634-3.137-3.3-4.855-4.958l1.388-1.44c1.747,1.683,3.409,3.38,4.939,5.043Zm-9.98-9.653c-1.669-1.459-3.463-2.966-5.331-4.477l1.258-1.555c1.888,1.527,3.7,3.05,5.39,4.526Zm-10.818-8.775c-1.771-1.348-3.6-2.708-5.6-4.159l1.175-1.619c2.011,1.46,3.855,2.829,5.639,4.186Zm-11.289-8.214c-1.724-1.21-3.6-2.514-5.743-3.987l1.133-1.648c2.146,1.476,4.03,2.784,5.758,4Zm-11.516-7.938-.585-.4c-1.708-1.166-3.474-2.371-5.2-3.552l1.132-1.649c1.72,1.18,3.485,2.385,5.191,3.55l.586.4Zm-11.545-7.94c-2.09-1.462-3.96-2.791-5.718-4.064l1.173-1.62c1.749,1.267,3.611,2.59,5.692,4.045Zm-11.359-8.251c-1.96-1.5-3.817-2.963-5.521-4.361l1.269-1.546c1.685,1.384,3.523,2.836,5.464,4.317Zm-10.854-8.979c-1.75-1.606-3.449-3.267-5.052-4.938l1.443-1.385c1.574,1.64,3.243,3.272,4.961,4.85Zm-9.769-10.2c-1.524-1.822-2.983-3.7-4.338-5.585l1.624-1.167c1.327,1.845,2.756,3.685,4.249,5.469Zm-8.244-11.488c-1.232-2.033-2.382-4.12-3.417-6.2l1.791-.89c1.011,2.033,2.133,4.071,3.336,6.056Zm-6.287-12.682c-.869-2.229-1.629-4.492-2.257-6.724l1.925-.542c.611,2.17,1.35,4.371,2.2,6.54Zm-3.814-13.66a39.3,39.3,0,0,1-.638-7.163l2,.075a38.292,38.292,0,0,0,.612,6.761Z" transform="translate(-7983.995 -2407.789)" fill="#bad1ff"/></svg>