<svg xmlns="http://www.w3.org/2000/svg" width="125.747" height="151.428" viewBox="0 0 125.747 151.428"><path d="M7984,2562.594a39.3,39.3,0,0,1,.638-7.163l1.973.326a38.222,38.222,0,0,0-.612,6.762Zm4.12-13.556-1.925-.542c.628-2.232,1.388-4.495,2.257-6.724l1.863.727C7989.472,2544.667,7988.733,2546.867,7988.122,2549.037Zm4.994-12.855-1.791-.89c1.035-2.083,2.185-4.17,3.417-6.2l1.71,1.037C7995.248,2532.111,7994.125,2534.148,7993.115,2536.182Zm7.156-11.828-1.624-1.167c1.355-1.885,2.814-3.763,4.338-5.585l1.534,1.283C8003.027,2520.668,8001.6,2522.508,8000.271,2524.353Zm8.874-10.627-1.443-1.385c1.6-1.671,3.3-3.332,5.052-4.938l1.353,1.473C8012.389,2510.454,8010.719,2512.086,8009.145,2513.726Zm10.212-9.395-1.27-1.546c1.7-1.4,3.561-2.866,5.521-4.362l1.213,1.59C8022.88,2501.5,8021.042,2502.948,8019.357,2504.332Zm11.065-8.474-1.173-1.62c1.758-1.273,3.629-2.6,5.719-4.064l1.146,1.639C8034.033,2493.268,8032.171,2494.591,8030.422,2495.858Zm11.441-8.023-1.131-1.649c1.722-1.181,3.488-2.387,5.2-3.552l.585-.4,1.127,1.652-.585.4C8045.348,2485.45,8043.583,2486.655,8041.863,2487.835Zm11.557-7.905-1.133-1.648c2.141-1.472,4.019-2.776,5.742-3.986l1.149,1.637C8057.449,2477.146,8055.566,2478.454,8053.42,2479.93Zm11.47-8.071-1.175-1.619c2-1.451,3.832-2.811,5.6-4.159l1.211,1.592C8068.746,2469.03,8066.9,2470.4,8064.89,2471.859Zm11.173-8.521-1.258-1.555c1.868-1.511,3.662-3.017,5.331-4.477l1.316,1.506C8079.764,2460.288,8077.951,2461.811,8076.063,2463.337Zm10.585-9.287-1.387-1.44c1.718-1.656,3.352-3.324,4.855-4.958l1.472,1.354C8090.057,2450.671,8088.4,2452.367,8086.648,2454.051Zm9.539-10.416-1.568-1.241c1.469-1.856,2.831-3.739,4.047-5.6l1.674,1.095C8099.09,2439.8,8097.693,2441.732,8096.187,2443.635Zm7.726-11.885-1.782-.909a55.717,55.717,0,0,0,2.746-6.3l1.88.682A57.817,57.817,0,0,1,8103.913,2431.749Zm4.82-13.377-1.955-.421a49.227,49.227,0,0,0,.971-6.786l1.995.144A51.193,51.193,0,0,1,8108.732,2418.372Z" transform="translate(-7983.996 -2411.165)" fill="#bad1ff"/></svg>