<?xml version="1.0" encoding="utf-8"?>
<!-- Generator: Adobe Illustrator 24.2.3, SVG Export Plug-In . SVG Version: 6.00 Build 0)  -->
<svg version="1.1" id="Layer_1" xmlns="http://www.w3.org/2000/svg" xmlns:xlink="http://www.w3.org/1999/xlink" x="0px" y="0px"
	 viewBox="0 0 52.5 51.3" style="enable-background:new 0 0 52.5 51.3;" xml:space="preserve">
<style type="text/css">
	.st0{fill:none;stroke:#000000;stroke-width:3;}
	.st1{fill:none;stroke:#707070;stroke-width:2;stroke-linecap:round;}
	.st2{fill:none;stroke:#000000;stroke-width:2;stroke-linecap:round;}
	.st3{fill:#FFFFFF;stroke:#000000;stroke-width:1.5;}
</style>
<g>
	<path id="Rectangle_1363" class="st0" d="M5.5,1.8h16l0,0v17c0,2.2-1.8,4-4,4h-16l0,0v-17C1.5,3.5,3.3,1.8,5.5,1.8z"/>
	<path id="Rectangle_1364" class="st0" d="M1.5,28.8h16c2.2,0,4,1.8,4,4v17l0,0h-16c-2.2,0-4-1.8-4-4V28.8L1.5,28.8z"/>
	<path id="Rectangle_1362" class="st0" d="M34.3,28.8h16l0,0v17c0,2.2-1.8,4-4,4h-16l0,0v-17C30.3,30.5,32,28.8,34.3,28.8z"/>
	<path id="Path_7624" class="st1" d="M52.5,11.8"/>
	<g>
		<line id="Line_571" class="st2" x1="29.3" y1="20.3" x2="51.3" y2="20.3"/>
		<line id="Line_572" class="st2" x1="29.3" y1="11.8" x2="51.3" y2="11.8"/>
		<line id="Line_574" class="st2" x1="29.3" y1="3.8" x2="51.3" y2="3.8"/>
		<circle id="Ellipse_421" class="st3" cx="36.3" cy="3.8" r="3"/>
		<circle id="Ellipse_422" class="st3" cx="44.8" cy="11.8" r="3"/>
		<circle id="Ellipse_423" class="st3" cx="36.3" cy="19.8" r="3"/>
	</g>
</g>
</svg>
