<?xml version="1.0" encoding="utf-8"?>
<!-- Generator: Adobe Illustrator 24.2.3, SVG Export Plug-In . SVG Version: 6.00 Build 0)  -->
<svg version="1.1" id="Layer_1" xmlns="http://www.w3.org/2000/svg" xmlns:xlink="http://www.w3.org/1999/xlink" x="0px" y="0px"
	 viewBox="0 0 51 51" style="enable-background:new 0 0 51 51;" xml:space="preserve">
<style type="text/css">
	.st0{fill:none;stroke:#000000;stroke-width:3;}
	.st1{fill-rule:evenodd;clip-rule:evenodd;stroke:#000000;stroke-width:3;stroke-linecap:round;stroke-miterlimit:10;}
</style>
<g>
	<path id="Rectangle_1363" class="st0" d="M5.5,1.5h16l0,0v17c0,2.2-1.8,4-4,4h-16l0,0v-17C1.5,3.3,3.3,1.5,5.5,1.5z"/>
	<path id="Rectangle_1364" class="st0" d="M1.5,28.5h16c2.2,0,4,1.8,4,4v17l0,0h-16c-2.2,0-4-1.8-4-4V28.5L1.5,28.5z"/>
	<path id="Rectangle_1362" class="st0" d="M33.5,28.5h16l0,0v17c0,2.2-1.8,4-4,4h-16l0,0v-17C29.5,30.3,31.3,28.5,33.5,28.5z"/>
	<g>
		<line class="st1" x1="29.5" y1="11.5" x2="49.5" y2="11.5"/>
		<line class="st1" x1="39.5" y1="21.5" x2="39.5" y2="1.5"/>
	</g>
</g>
</svg>
