<svg xmlns="http://www.w3.org/2000/svg" xmlns:xlink="http://www.w3.org/1999/xlink" width="511.155" height="735.511" viewBox="0 0 511.155 735.511">
  <defs>
    <filter id="Union_4" x="0" y="0" width="511.155" height="735.511" filterUnits="userSpaceOnUse">
      <feOffset input="SourceAlpha"/>
      <feGaussianBlur stdDeviation="3" result="blur"/>
      <feFlood flood-opacity="0.161"/>
      <feComposite operator="in" in2="blur"/>
      <feComposite in="SourceGraphic"/>
    </filter>
  </defs>
  <g id="Group_2314" data-name="Group 2314" transform="translate(9.519 9.514)">
    <g transform="matrix(1, 0, 0, 1, -9.52, -9.51)" filter="url(#Union_4)">
      <path id="Union_4-2" data-name="Union 4" d="M228.305,716.5H46.973S-.374,713.192.049,674.555s0-634.291,0-634.291S-3.455.342,48.984.108s71.926,0,71.926,0,13.823-1.619,38.382,14.438S192.8,35.137,192.8,35.137s9.959,6,29.317,5.723c8.075-.116,16.666-.137,23.94-.12,7.274-.017,15.867,0,23.942.12,19.355.277,29.323-5.723,29.323-5.723s8.951-4.524,33.5-20.592S371.208.108,371.208.108s19.49-.242,71.92,0,48.941,40.156,48.941,40.156-.42,595.654,0,634.291S445.145,716.5,445.145,716.5Z" transform="translate(9.52 9.51)" fill="#fff" stroke="#00aeef" stroke-width="1"/>
    </g>
  </g>
</svg>
