<svg xmlns="http://www.w3.org/2000/svg" width="493.122" height="717.497" viewBox="0 0 493.122 717.497">
  <defs>
    <style>
      .cls-1 {
        fill: #fff;
      }

      .cls-2 {
        fill: #294cfd;
      }
    </style>
  </defs>
  <g id="Group_3119" data-name="Group 3119" transform="translate(0.502 0.5)">
    <path id="Union_4" data-name="Union 4" class="cls-1" d="M228.305,716.5H46.973S-.374,713.192.049,674.555s0-634.291,0-634.291S-3.455.342,48.984.108s71.926,0,71.926,0,13.823-1.619,38.382,14.438S192.8,35.137,192.8,35.137s9.959,6,29.317,5.723c8.075-.116,16.666-.137,23.94-.12,7.274-.017,15.867,0,23.942.12,19.355.277,29.323-5.723,29.323-5.723s8.951-4.524,33.5-20.592S371.208.108,371.208.108s19.49-.242,71.92,0,48.941,40.156,48.941,40.156-.42,595.654,0,634.291S445.145,716.5,445.145,716.5Z" transform="translate(0 0)"/>
    <path id="Union_4_-_Outline" data-name="Union 4 - Outline" class="cls-2" d="M445.162,717H46.939a63.17,63.17,0,0,1-7.457-1.129,72.4,72.4,0,0,1-16.345-5.4A44.164,44.164,0,0,1,6.8,697.712c-4.912-6.442-7.354-14.235-7.256-23.162.415-38.153.005-627.1,0-634.265a34.874,34.874,0,0,1,.691-8.861,38.623,38.623,0,0,1,2.734-8.567,35.084,35.084,0,0,1,6-9.11A39.128,39.128,0,0,1,23.8,3.821C30.8,1.069,39.279-.349,48.982-.392,64.448-.464,78.565-.5,90.939-.5c20.465,0,29.372.1,29.948.107.116-.011.512-.045,1.177-.045a43.294,43.294,0,0,1,12.519,2.253,101.789,101.789,0,0,1,24.983,12.312c24.23,15.858,33.372,20.518,33.461,20.564l.033.018a34.623,34.623,0,0,0,7,2.83,71.682,71.682,0,0,0,20.757,2.831c.427,0,.861,0,1.291-.009,5.785-.083,12.38-.125,19.6-.125,1.426,0,2.889,0,4.347.005s2.919-.005,4.345-.005c7.222,0,13.818.042,19.6.125.43.006.864.009,1.291.009a71.715,71.715,0,0,0,20.76-2.831,34.648,34.648,0,0,0,7.007-2.83l.032-.018c.089-.045,9.223-4.706,33.455-20.564A101.773,101.773,0,0,1,357.534,1.816a43.3,43.3,0,0,1,12.52-2.254c.665,0,1.061.034,1.177.045C371.807-.4,380.72-.5,401.18-.5c12.373,0,26.488.036,41.951.108,9.7.043,18.18,1.461,25.191,4.214a39.132,39.132,0,0,1,14.827,9.927,35.087,35.087,0,0,1,6,9.11,38.617,38.617,0,0,1,2.734,8.566,34.872,34.872,0,0,1,.691,8.86c-.005,7.16-.415,596.111,0,634.265.1,8.927-2.344,16.72-7.256,23.162a44.164,44.164,0,0,1-16.331,12.754,72.4,72.4,0,0,1-16.345,5.4A63.17,63.17,0,0,1,445.179,717Zm-398.17-1H445.126a62.806,62.806,0,0,0,7.338-1.116,71.354,71.354,0,0,0,16.111-5.329,43.155,43.155,0,0,0,15.953-12.459c4.768-6.258,7.137-13.839,7.042-22.533-.415-38.2,0-628.34,0-634.3l0-.043a34.376,34.376,0,0,0-.681-8.641,37.608,37.608,0,0,0-2.668-8.334,34.086,34.086,0,0,0-5.823-8.833C474.11,5.331,460.9.687,443.126.608,427.664.536,413.551.5,401.18.5,380.121.5,371.3.607,371.214.608h-.032l-.032,0a10.92,10.92,0,0,0-1.1-.042A42.3,42.3,0,0,0,357.83,2.771,100.785,100.785,0,0,0,333.1,14.964c-23.811,15.582-33.091,20.384-33.535,20.611a35.152,35.152,0,0,1-7.169,2.906,63.373,63.373,0,0,1-8.836,1.986,81,81,0,0,1-12.261.9c-.431,0-.87,0-1.3-.009-5.78-.083-12.371-.125-19.588-.125-1.425,0-2.887,0-4.345.005s-2.922-.005-4.347-.005c-7.217,0-13.806.042-19.587.125-.434.006-.874.009-1.3.009a80.979,80.979,0,0,1-12.26-.9,63.33,63.33,0,0,1-8.834-1.986,35.124,35.124,0,0,1-7.166-2.906c-.442-.226-9.728-5.026-33.542-20.611A100.8,100.8,0,0,0,134.286,2.77,42.293,42.293,0,0,0,122.064.562a10.913,10.913,0,0,0-1.1.042l-.031,0H120.9C120.818.607,112,.5,90.939.5,78.566.5,64.451.536,48.986.608,31.218.687,18.007,5.331,9.719,14.41A34.084,34.084,0,0,0,3.9,23.244a37.607,37.607,0,0,0-2.668,8.335A34.377,34.377,0,0,0,.547,40.22l0,.043c0,5.957.415,596.1,0,634.3-.1,8.7,2.277,16.284,7.051,22.545a43.178,43.178,0,0,0,15.969,12.459,71.386,71.386,0,0,0,16.114,5.323A62.63,62.63,0,0,0,46.992,716Z" transform="translate(0 0)"/>
  </g>
</svg>
