<svg xmlns="http://www.w3.org/2000/svg" width="493.125" height="717.502" viewBox="0 0 493.125 717.502">
  <defs>
    <style>
      .cls-1 {
        fill: #fff;
      }

      .cls-2 {
        fill: #31ae0b;
      }
    </style>
  </defs>
  <g id="Group_3104" data-name="Group 3104" transform="translate(0.502 0.5)">
    <path id="Union_3" data-name="Union 3" class="cls-1" d="M228.313,716.5H46.975S-.372,713.191.048,674.557s0-634.292,0-634.292S-3.447.345,48.986.109s71.933,0,71.933,0,13.821-1.619,38.371,14.442S192.8,35.142,192.8,35.142s9.966,6,29.323,5.721c8.073-.118,16.666-.137,23.938-.118,7.27-.019,15.864,0,23.935.118,19.357.28,29.319-5.721,29.319-5.721s8.959-4.522,33.512-20.592S371.205.109,371.205.109s19.49-.244,71.924,0,48.943,40.156,48.943,40.156-.42,595.659,0,634.292S445.148,716.5,445.148,716.5Z" transform="translate(0 0)"/>
    <path id="Union_3_-_Outline" data-name="Union 3 - Outline" class="cls-2" d="M445.166,717H46.94a63.173,63.173,0,0,1-7.457-1.13,72.417,72.417,0,0,1-16.345-5.4A44.174,44.174,0,0,1,6.806,697.713C1.893,691.27-.549,683.478-.452,674.551c.423-38.149.005-627.105,0-634.266a34.878,34.878,0,0,1,.692-8.861,38.633,38.633,0,0,1,2.735-8.567,35.1,35.1,0,0,1,6-9.11A39.136,39.136,0,0,1,23.8,3.823C30.809,1.07,39.282-.348,48.983-.391,64.449-.463,78.566-.5,90.942-.5c20.467,0,29.378.1,29.953.108.116-.011.512-.045,1.176-.045a43.264,43.264,0,0,1,12.516,2.254,101.729,101.729,0,0,1,24.976,12.315C183.8,29.992,192.937,34.651,193.027,34.7l.033.018a34.63,34.63,0,0,0,7,2.829,71.688,71.688,0,0,0,20.754,2.83c.43,0,.867,0,1.3-.009,5.642-.083,12.085-.124,19.15-.124,1.568,0,3.182,0,4.8.006s3.225-.006,4.793-.006c7.065,0,13.508.042,19.148.124.433.006.87.009,1.3.009a71.667,71.667,0,0,0,20.752-2.83,34.585,34.585,0,0,0,7-2.829l.032-.018c.09-.045,9.231-4.7,33.463-20.564A101.754,101.754,0,0,1,357.533,1.817,43.278,43.278,0,0,1,370.052-.437c.665,0,1.061.034,1.176.045.577-.007,9.491-.108,29.95-.108,12.374,0,26.489.037,41.954.109,9.7.044,18.179,1.462,25.189,4.215a39.14,39.14,0,0,1,14.827,9.927,35.094,35.094,0,0,1,6,9.109,38.625,38.625,0,0,1,2.735,8.566,34.869,34.869,0,0,1,.692,8.86c-.005,7.16-.415,596.117,0,634.266.1,8.926-2.344,16.719-7.256,23.161a44.171,44.171,0,0,1-16.331,12.755,72.414,72.414,0,0,1-16.345,5.4,63.174,63.174,0,0,1-7.457,1.13ZM46.994,716H445.13a62.817,62.817,0,0,0,7.338-1.117,71.365,71.365,0,0,0,16.111-5.331,43.163,43.163,0,0,0,15.953-12.46c4.768-6.259,7.137-13.839,7.042-22.532-.416-38.194,0-628.341,0-634.3l0-.043a34.372,34.372,0,0,0-.683-8.641,37.614,37.614,0,0,0-2.669-8.334,34.1,34.1,0,0,0-5.824-8.833C474.11,5.333,460.9.689,443.127.609,427.665.537,413.551.5,401.178.5c-21.06,0-29.88.108-29.967.109h-.032l-.032,0a10.923,10.923,0,0,0-1.095-.042A42.278,42.278,0,0,0,357.83,2.772a100.768,100.768,0,0,0-24.729,12.2c-23.8,15.58-33.093,20.381-33.543,20.611a35.079,35.079,0,0,1-7.164,2.905,63.282,63.282,0,0,1-8.832,1.986,80.971,80.971,0,0,1-12.258.9c-.435,0-.877,0-1.315-.01-5.636-.082-12.074-.124-19.134-.124-1.567,0-3.179,0-4.793.006s-3.229-.006-4.8-.006c-7.06,0-13.5.042-19.135.124-.438.006-.88.01-1.315.01a80.976,80.976,0,0,1-12.258-.9,63.324,63.324,0,0,1-8.833-1.986,35.128,35.128,0,0,1-7.167-2.905c-.447-.229-9.733-5.029-33.544-20.611a100.742,100.742,0,0,0-24.725-12.2A42.262,42.262,0,0,0,122.071.563a10.918,10.918,0,0,0-1.1.042l-.031,0h-.032c-.087,0-8.9-.109-29.97-.109C78.568.5,64.452.537,48.988.609,31.215.689,18,5.336,9.713,14.422a34.1,34.1,0,0,0-5.827,8.851,37.628,37.628,0,0,0-2.664,8.345,34.235,34.235,0,0,0-.675,8.6l0,.043c0,5.957.424,596.1,0,634.3-.095,8.7,2.278,16.283,7.053,22.544a43.191,43.191,0,0,0,15.97,12.46,71.408,71.408,0,0,0,16.114,5.325A62.625,62.625,0,0,0,46.994,716Z" transform="translate(0 0)"/>
  </g>
</svg>
