<svg xmlns="http://www.w3.org/2000/svg" width="493.13" height="717.5" viewBox="0 0 493.13 717.5">
  <defs>
    <style>
      .cls-1 {
        fill: #fff;
      }

      .cls-2 {
        fill: #7a2ac6;
      }
    </style>
  </defs>
  <g id="Group_3110" data-name="Group 3110" transform="translate(0.502 0.498)">
    <path id="Union_7" data-name="Union 7" class="cls-1" d="M-16635.562-19517.072H-16816.9s-47.352-3.311-46.93-41.941,0-634.295,0-634.295-3.494-39.92,48.939-40.158,71.93,0,71.93,0,13.824-1.621,38.377,14.447,33.508,20.588,33.508,20.588,9.963,6,29.322,5.719c8.072-.117,16.666-.137,23.938-.119,7.273-.018,15.865,0,23.941.119,19.354.283,29.316-5.719,29.316-5.719s8.963-4.525,33.512-20.588,38.377-14.447,38.377-14.447,19.486-.238,71.926,0,48.944,40.158,48.944,40.158-.427,595.66,0,634.295-46.929,41.941-46.929,41.941Z" transform="translate(16863.875 20233.574)"/>
    <path id="Union_7_-_Outline" data-name="Union 7 - Outline" class="cls-2" d="M-16418.709-19516.572l-398.225,0a63.019,63.019,0,0,1-7.457-1.129,72.494,72.494,0,0,1-16.348-5.4,44.156,44.156,0,0,1-16.332-12.754c-4.914-6.441-7.355-14.234-7.258-23.16.42-38.15.006-627.107,0-634.268a34.949,34.949,0,0,1,.693-8.861,38.611,38.611,0,0,1,2.734-8.566,35.1,35.1,0,0,1,6-9.109,39.143,39.143,0,0,1,14.826-9.928c7.01-2.752,15.482-4.17,25.186-4.215,15.465-.07,29.582-.105,41.957-.105,20.467,0,29.375.1,29.951.105.115-.012.512-.045,1.178-.045a43.288,43.288,0,0,1,12.52,2.254,101.677,101.677,0,0,1,24.977,12.32c24.229,15.854,33.371,20.514,33.459,20.561l.018.008.016.01a34.665,34.665,0,0,0,7,2.828,71.666,71.666,0,0,0,20.74,2.828c.436,0,.879,0,1.316-.01,5.705-.082,12.217-.125,19.357-.125,1.5,0,3.047,0,4.59.006s3.084-.006,4.586-.006c7.141,0,13.654.043,19.361.125.438.006.881.01,1.314.01a71.65,71.65,0,0,0,20.738-2.828,34.673,34.673,0,0,0,7-2.828l.016-.01.018-.008c.088-.047,9.234-4.707,33.463-20.561a101.677,101.677,0,0,1,24.977-12.32,43.288,43.288,0,0,1,12.52-2.254c.666,0,1.063.033,1.178.045.576-.008,9.488-.105,29.949-.105,12.373,0,26.49.035,41.955.105,9.7.045,18.178,1.463,25.189,4.217a39.147,39.147,0,0,1,14.826,9.926,35.119,35.119,0,0,1,6,9.111,38.631,38.631,0,0,1,2.735,8.566,34.854,34.854,0,0,1,.692,8.859c0,7.16-.422,596.117,0,634.268.1,8.926-2.345,16.719-7.258,23.16a44.168,44.168,0,0,1-16.333,12.754,72.452,72.452,0,0,1-16.346,5.4,63.019,63.019,0,0,1-7.457,1.129Zm-398.17-1h398.133a62.447,62.447,0,0,0,7.338-1.117,71.281,71.281,0,0,0,16.113-5.33,43.159,43.159,0,0,0,15.954-12.459c4.768-6.258,7.138-13.838,7.043-22.529-.422-38.2,0-628.344,0-634.3l0-.043a34.4,34.4,0,0,0-.684-8.643,37.657,37.657,0,0,0-2.669-8.334,34.113,34.113,0,0,0-5.825-8.832c-8.29-9.08-21.5-13.727-39.271-13.807-15.465-.07-29.578-.105-41.951-.105-21.061,0-29.881.1-29.967.105h-.031l-.033,0s-.377-.041-1.1-.041a42.289,42.289,0,0,0-12.223,2.209,100.776,100.776,0,0,0-24.727,12.2c-23.812,15.582-33.1,20.383-33.543,20.607a34.969,34.969,0,0,1-7.16,2.9,63.036,63.036,0,0,1-8.826,1.986,80.928,80.928,0,0,1-12.25.9c-.439,0-.887,0-1.33-.01-5.7-.082-12.209-.125-19.346-.125-1.5,0-3.045,0-4.586.006s-3.088-.006-4.59-.006c-7.135,0-13.643.043-19.342.125-.443.006-.891.01-1.332.01a80.928,80.928,0,0,1-12.25-.9,63.065,63.065,0,0,1-8.828-1.986,35.04,35.04,0,0,1-7.162-2.9c-.447-.229-9.734-5.031-33.539-20.607a100.776,100.776,0,0,0-24.727-12.2,42.289,42.289,0,0,0-12.223-2.209c-.719,0-1.094.041-1.1.041l-.031,0h-.031c-.086,0-8.9-.105-29.969-.105-12.373,0-26.488.035-41.953.105-17.773.08-30.988,4.729-39.275,13.816a34.086,34.086,0,0,0-5.828,8.85,37.643,37.643,0,0,0-2.664,8.346,34.242,34.242,0,0,0-.676,8.6l0,.043c0,5.957.42,596.105,0,634.3-.1,8.7,2.277,16.281,7.053,22.541a43.162,43.162,0,0,0,15.971,12.459,71.362,71.362,0,0,0,16.115,5.324A62.45,62.45,0,0,0-16816.879-19517.572Z" transform="translate(16863.875 20233.574)"/>
  </g>
</svg>
