<svg xmlns="http://www.w3.org/2000/svg" width="492.124" height="716.501" viewBox="0 0 492.124 716.501">
  <defs>
    <style>
      .cls-1 {
        fill: #101e40;
      }
    </style>
  </defs>
  <g id="Group_3120" data-name="Group 3120" transform="translate(-434 -1272.264)">
    <path id="Path_6508" data-name="Path 6508" class="cls-1" d="M8807.874,5316.532v673.979H8591.039s-47.352-3.308-46.929-41.943,0-634.292,0-634.292-3.5-39.924,48.941-40.162,71.926,0,71.926,0,13.823-1.618,38.376,14.447,33.512,20.59,33.512,20.59,9.961,6,29.318,5.719,41.69,0,41.69,0Z" transform="translate(-8110.062 -4001.746)"/>
    <path id="Path_6509" data-name="Path 6509" class="cls-1" d="M8544.063,5316.532v673.979H8760.9s47.35-3.308,46.928-41.943,0-634.292,0-634.292,3.5-39.924-48.941-40.162-71.927,0-71.927,0-13.822-1.618-38.377,14.447-33.509,20.59-33.509,20.59-9.965,6-29.32,5.719-41.689,0-41.689,0Z" transform="translate(-7881.752 -4001.746)"/>
  </g>
</svg>
