<svg xmlns="http://www.w3.org/2000/svg" width="461.048" height="735.761" viewBox="0 0 461.048 735.761">
  <g id="Group_418" data-name="Group 418" transform="translate(-9864.062 -5254.009)">
    <path id="Path_6508" data-name="Path 6508" d="M8791.215,5317.674v692.1H8588.07s-44.359-3.4-43.964-43.07,0-651.341,0-651.341-3.276-41,45.851-41.241,67.386,0,67.386,0,12.949-1.661,35.952,14.835,31.394,21.144,31.394,21.144,9.334,6.162,27.469,5.873,39.058,0,39.058,0Z" transform="translate(1320 -20)" fill="#101e40"/>
    <path id="Path_6509" data-name="Path 6509" d="M8544.063,5317.674v692.1h203.145s44.359-3.4,43.964-43.07,0-651.341,0-651.341,3.276-41-45.851-41.241-67.386,0-67.386,0-12.949-1.661-35.952,14.835-31.393,21.144-31.393,21.144-9.335,6.162-27.47,5.873-39.058,0-39.058,0Z" transform="translate(1533.893 -20)" fill="#101e40"/>
  </g>
</svg>
