<svg id="Layer_1" data-name="Layer 1" xmlns="http://www.w3.org/2000/svg" viewBox="0 0 175.21 27.9"><defs><style>.cls-1{fill:red;}.cls-2{fill:#00154e;}.cls-3{fill:#fff;}.cls-4{fill:none;}</style></defs><title>TG</title><polygon class="cls-1" points="175.21 0 175.21 27.91 91.26 27.91 107.76 0 175.21 0"/><polygon class="cls-2" points="105.78 0 89.27 27.9 0 27.9 0 0 105.78 0"/><path class="cls-3" d="M13.34,8.72h7.18v1.59H17.91V18.5H16V10.31H13.34Z"/><path class="cls-3" d="M26.38,10.61a3,3,0,0,1,2.56,1.24V10.74h2V18.5h-2V17.37a3.05,3.05,0,0,1-2.57,1.26c-2,0-3.53-1.61-3.53-4S24.41,10.61,26.38,10.61Zm.5,1.73a2.06,2.06,0,0,0-2,2.25,2.12,2.12,0,0,0,2,2.31,2.09,2.09,0,0,0,2.06-2.28A2.09,2.09,0,0,0,26.88,12.34Z"/><path class="cls-3" d="M34.23,8.14h2V18.5h-2Z"/><path class="cls-3" d="M39.53,8.14h2V18.5h-2Z"/><path class="cls-3" d="M48.21,18.63a3.76,3.76,0,0,1-3.9-4,3.74,3.74,0,0,1,3.9-4A3.64,3.64,0,0,1,52,14.45a3.84,3.84,0,0,1-.06.76H46.3A1.81,1.81,0,0,0,48.17,17a1.59,1.59,0,0,0,1.55-.94h2.12A3.61,3.61,0,0,1,48.21,18.63Zm-1.89-4.74H50a1.72,1.72,0,0,0-1.85-1.66A1.79,1.79,0,0,0,46.32,13.89Z"/><path class="cls-3" d="M60.29,14.21a1.74,1.74,0,1,0-3.47,0V18.5h-2V10.74h2v1a2.88,2.88,0,0,1,2.34-1.08A3,3,0,0,1,62.25,14V18.5h-2Z"/><path class="cls-3" d="M65.82,12.35h-.93V10.74h.93V8.82h2v1.92h1.74v1.61H67.79v3.76c0,.51.21.74.83.74h.91V18.5H68.3c-1.49,0-2.48-.63-2.48-2.41Z"/><path class="cls-3" d="M75.79,18.63a3.8,3.8,0,0,1-3.94-4,4,4,0,1,1,8,0A3.89,3.89,0,0,1,75.79,18.63Zm0-1.71a2.07,2.07,0,0,0,2-2.3,2,2,0,0,0-2-2.3,2,2,0,0,0-2,2.3C73.84,16.16,74.74,16.92,75.79,16.92Z"/><path class="cls-3" d="M84.63,18.5h-2V10.74h2V12A2.7,2.7,0,0,1,87,10.63v2.06H86.5c-1.17,0-1.87.45-1.87,1.94Z"/><path class="cls-3" d="M118.17,14.33c0,2.53-1.74,4.17-4.41,4.17h-2.93V10.13h2.93C116.43,10.13,118.17,11.78,118.17,14.33Zm-4.47,2.74a2.5,2.5,0,0,0,2.76-2.74,2.54,2.54,0,0,0-2.76-2.79h-1.19v5.53Z"/><path class="cls-3" d="M120.37,10.13h1.68V18.5h-1.68Z"/><path class="cls-3" d="M132.4,12.65h-1.93a2.09,2.09,0,0,0-2-1.08A2.5,2.5,0,0,0,126,14.3a2.52,2.52,0,0,0,2.62,2.76A2.27,2.27,0,0,0,131,15.13h-2.88V13.85h4.54v1.46a4.24,4.24,0,0,1-8.37-1A4.15,4.15,0,0,1,128.51,10,3.84,3.84,0,0,1,132.4,12.65Z"/><path class="cls-3" d="M134.8,10.13h1.68V18.5H134.8Z"/><path class="cls-3" d="M138.62,10.13h6.14v1.35h-2.23v7h-1.67v-7h-2.24Z"/><path class="cls-3" d="M152.06,16.91h-3.33l-.56,1.59h-1.76l3-8.38h2l3,8.38h-1.78Zm-1.67-4.85-1.21,3.5h2.43Z"/><path class="cls-3" d="M158.13,10.13v7h2.76V18.5h-4.43V10.13Z"/><line class="cls-4" x1="104.62" y1="4.53" x2="90.06" y2="29.14"/></svg>