<?xml version="1.0" standalone="no"?>
<!DOCTYPE svg PUBLIC "-//W3C//DTD SVG 20010904//EN"
 "http://www.w3.org/TR/2001/REC-SVG-20010904/DTD/svg10.dtd">
<svg version="1.0" xmlns="http://www.w3.org/2000/svg"
 width="850.000000pt" height="850.000000pt" viewBox="0 0 850.000000 850.000000"
 preserveAspectRatio="xMidYMid meet">
<metadata>
Created by potrace 1.14, written by Peter Selinger 2001-2017
</metadata>
<g transform="translate(0.000000,850.000000) scale(0.100000,-0.100000)"
fill="#000000" stroke="none">
<path d="M2685 7525 c432 -432 785 -790 785 -796 0 -6 12 -27 27 -47 15 -20
28 -39 30 -41 1 -2 267 -5 590 -6 324 -1 597 -5 608 -8 11 -3 54 -13 95 -21
41 -9 86 -20 100 -25 14 -5 45 -14 70 -21 25 -7 54 -17 65 -22 12 -5 27 -10
35 -12 8 -1 32 -10 54 -19 21 -9 42 -17 45 -17 4 0 26 -9 49 -20 22 -11 46
-20 52 -20 5 0 10 -5 10 -12 0 -6 3 -8 7 -5 7 7 218 -103 258 -135 6 -5 39
-27 75 -49 36 -23 67 -45 70 -48 3 -4 21 -18 40 -31 94 -66 285 -246 378 -356
17 -21 42 -50 53 -64 12 -14 42 -54 67 -90 26 -36 50 -66 54 -68 5 -2 8 -8 8
-12 0 -5 13 -28 29 -52 70 -104 243 -458 224 -458 -3 0 -1 -6 5 -12 5 -7 13
-29 17 -48 4 -19 11 -39 15 -45 6 -9 11 -25 26 -80 10 -39 37 -154 40 -172 6
-32 12 -64 19 -93 3 -14 7 -47 10 -75 2 -27 7 -69 10 -92 17 -111 8 -442 -16
-578 -5 -33 -12 -76 -15 -95 -2 -19 -18 -87 -35 -150 -17 -63 -32 -119 -33
-125 -1 -5 -7 -23 -13 -40 -6 -16 -15 -39 -19 -50 -4 -11 -8 -22 -8 -25 -4
-17 -43 -114 -67 -166 -16 -33 -29 -63 -29 -66 0 -4 -25 -50 -55 -103 -30 -54
-55 -101 -55 -105 0 -5 -3 -10 -7 -12 -5 -1 -26 -30 -47 -63 -47 -72 -140
-195 -189 -249 l-35 -39 0 766 c0 420 -2 769 -5 774 -3 5 -4 29 -1 53 7 75 2
281 -10 360 -4 30 -20 123 -21 130 -1 3 -5 23 -10 45 -5 22 -10 42 -10 45 -1
3 -5 19 -9 35 -4 17 -11 39 -16 50 -4 11 -16 43 -25 70 -41 118 -154 344 -177
353 -4 2 -8 10 -8 18 0 8 -4 14 -10 14 -5 0 -10 5 -10 10 0 11 -39 70 -53 81
-4 3 -18 21 -32 39 -36 49 -150 166 -225 231 -213 184 -529 341 -776 385 l-30
6 0 -2882 0 -2882 65 6 c36 4 84 9 106 12 22 3 51 7 65 9 42 5 104 16 120 20
8 2 29 7 45 10 17 2 41 7 55 10 14 3 39 8 55 11 17 2 48 10 70 16 22 6 45 12
51 14 6 1 38 10 70 19 33 9 70 19 84 22 13 2 29 8 35 13 5 4 12 8 15 8 14 0
66 16 75 23 6 4 12 7 15 7 7 -2 109 32 145 47 17 7 46 20 67 29 20 9 39 16 42
16 8 0 189 85 291 137 50 26 100 51 112 57 13 6 23 14 23 19 0 4 4 7 10 7 12
0 170 96 280 171 263 178 557 436 745 654 28 32 55 63 60 69 8 9 83 101 138
171 37 46 157 215 157 220 0 4 11 21 25 39 14 18 25 38 25 44 0 7 5 12 10 12
6 0 10 7 10 15 0 8 5 15 10 15 6 0 10 4 10 9 0 5 21 45 46 88 38 64 196 376
200 393 1 7 22 60 33 85 32 70 134 361 145 415 6 32 18 76 23 90 6 15 8 25 17
73 3 12 5 22 7 22 1 0 3 9 5 20 4 26 12 60 14 60 1 0 3 9 4 20 2 11 7 38 11
60 4 22 8 47 9 55 2 8 6 35 10 60 4 25 9 56 11 70 2 14 7 45 10 70 14 92 28
275 29 372 1 43 5 78 9 78 5 0 5 5 1 11 -3 6 -8 79 -9 163 -3 140 -8 229 -21
317 -2 20 -6 56 -9 80 -2 24 -7 55 -9 69 -3 14 -8 44 -11 68 -3 24 -9 61 -14
83 -5 21 -7 39 -4 39 3 0 0 7 -7 15 -7 8 -10 15 -7 15 3 0 -4 37 -14 83 -11
45 -21 93 -24 107 -3 14 -9 34 -12 45 -4 11 -8 25 -9 30 -7 35 -54 187 -63
204 -7 12 -9 21 -7 21 3 0 -3 20 -14 45 -11 25 -20 49 -21 53 -4 18 -11 39
-25 70 -8 18 -14 39 -14 47 0 8 -4 15 -10 15 -5 0 -9 3 -8 8 7 19 -139 324
-219 460 -24 41 -43 75 -43 78 0 2 -21 36 -47 76 -27 40 -50 78 -53 83 -10 22
-125 180 -132 183 -4 2 -8 10 -8 17 0 7 -3 15 -7 17 -5 2 -35 37 -68 78 -32
41 -64 80 -70 86 -5 7 -37 43 -70 80 -108 125 -291 302 -430 417 -38 32 -79
66 -90 75 -11 10 -65 50 -120 90 -123 89 -117 84 -141 99 -10 7 -71 45 -134
84 -94 59 -435 242 -462 248 -4 1 -29 11 -55 22 -68 30 -97 42 -103 44 -3 1
-14 5 -25 9 -79 30 -109 41 -175 63 -75 25 -232 72 -260 78 -8 2 -53 12 -100
23 -97 23 -130 30 -180 38 -19 3 -51 10 -70 15 -20 5 -661 9 -1542 9 l-1507 0
784 -785z"/>
<path d="M1180 7732 c-77 -66 -365 -355 -430 -431 -30 -35 -63 -73 -72 -83
-10 -10 -18 -22 -18 -28 0 -5 -4 -10 -8 -10 -5 0 -21 -18 -38 -41 -16 -22 -34
-46 -39 -52 -6 -7 -24 -30 -40 -52 -17 -22 -36 -46 -43 -53 -6 -8 -17 -23 -23
-34 -6 -11 -17 -27 -25 -36 -7 -9 -40 -57 -73 -107 l-59 -90 212 -213 213
-213 -86 -172 c-48 -95 -96 -194 -107 -222 -11 -27 -31 -75 -43 -105 -24 -59
-120 -342 -127 -374 -2 -10 -10 -42 -18 -70 -8 -28 -17 -62 -20 -76 -3 -14 -7
-34 -10 -45 -2 -11 -10 -42 -16 -70 -6 -27 -14 -61 -16 -75 -27 -153 -34 -193
-39 -240 -4 -30 -9 -62 -10 -70 -5 -27 -16 -166 -20 -250 -2 -45 -6 -85 -9
-88 -3 -3 -1 -11 5 -19 6 -7 8 -13 3 -13 -20 0 4 -482 31 -650 2 -14 7 -45 10
-70 12 -99 80 -414 96 -442 5 -10 9 -25 9 -34 0 -36 118 -374 171 -491 10 -23
19 -45 19 -48 0 -11 169 -345 189 -374 12 -16 21 -31 21 -34 0 -27 288 -445
367 -532 10 -11 45 -52 78 -90 33 -39 77 -88 98 -109 20 -22 37 -44 37 -49 0
-4 4 -5 10 -2 5 3 10 2 10 -3 0 -22 301 -296 414 -377 16 -11 33 -25 40 -30 6
-6 27 -22 46 -35 19 -13 37 -27 40 -30 8 -10 227 -153 293 -191 33 -19 73 -42
90 -53 35 -21 289 -150 297 -151 3 0 31 -13 64 -28 32 -15 64 -27 72 -27 7 0
15 -4 19 -10 3 -5 20 -14 38 -19 18 -5 70 -24 117 -41 83 -31 130 -47 160 -55
8 -2 56 -16 105 -30 50 -15 97 -28 106 -30 8 -2 44 -10 80 -19 35 -9 78 -18
94 -20 17 -3 37 -7 45 -10 8 -3 32 -8 54 -11 21 -3 41 -7 45 -9 3 -2 33 -6 66
-10 33 -3 71 -8 85 -11 14 -3 50 -7 80 -9 31 -3 60 -5 65 -6 6 -2 15 -2 21 -1
8 1 11 222 11 765 l0 765 -41 7 c-85 14 -185 34 -206 42 -8 3 -22 6 -30 8 -80
17 -325 108 -418 156 -31 15 -62 28 -69 28 -7 0 -13 3 -13 8 0 4 -23 18 -50
31 -28 14 -50 29 -50 33 0 4 -3 7 -7 6 -8 -3 -129 68 -149 87 -7 5 -24 19 -40
30 -145 103 -340 284 -442 410 -31 39 -60 72 -63 75 -12 10 -157 226 -174 260
-10 19 -21 37 -24 40 -12 10 -114 226 -141 300 -7 19 -17 39 -22 45 -4 5 -8
17 -8 27 0 11 -7 32 -15 47 -8 16 -16 39 -19 53 -2 14 -11 45 -19 69 -8 24
-18 60 -21 79 -4 19 -8 40 -10 45 -1 6 -6 28 -11 50 -4 22 -10 49 -12 60 -7
33 -14 89 -29 215 -7 52 -7 356 0 415 17 160 22 200 26 200 1 0 3 16 6 35 13
98 100 406 113 395 62 -57 1911 -1912 1911 -1917 0 -5 6 -8 13 -8 11 0 14 172
14 990 l0 990 -1327 1328 c-730 730 -1333 1332 -1341 1339 -11 9 -25 2 -69
-35z"/>
</g>
</svg>
