<?xml version="1.0" standalone="no"?>
<!DOCTYPE svg PUBLIC "-//W3C//DTD SVG 20010904//EN"
 "http://www.w3.org/TR/2001/REC-SVG-20010904/DTD/svg10.dtd">
<svg version="1.0" xmlns="http://www.w3.org/2000/svg"
 width="826.000000pt" height="826.000000pt" viewBox="0 0 826.000000 826.000000"
 preserveAspectRatio="xMidYMid meet">
<metadata>
Created by potrace 1.14, written by Peter Selinger 2001-2017
</metadata>
<g transform="translate(0.000000,826.000000) scale(0.100000,-0.100000)"
fill="#000000" stroke="none">
<path d="M3929 8225 c-3 -3 -42 -7 -87 -10 -45 -3 -97 -7 -114 -9 -18 -3 -60
-7 -93 -11 -33 -4 -71 -8 -84 -10 -13 -3 -45 -8 -70 -12 -25 -4 -48 -8 -51 -8
-3 -1 -25 -5 -50 -9 -25 -5 -52 -10 -60 -11 -8 -2 -64 -15 -125 -29 -60 -15
-119 -28 -130 -31 -11 -2 -63 -18 -115 -35 -52 -17 -106 -33 -120 -36 -14 -3
-29 -9 -35 -15 -5 -5 -15 -9 -22 -9 -14 0 -167 -58 -238 -90 -22 -9 -65 -28
-95 -41 -30 -13 -58 -27 -61 -32 -3 -5 -10 -9 -15 -9 -14 -1 -142 -65 -219
-108 -38 -22 -78 -43 -87 -46 -10 -4 -18 -10 -18 -15 0 -5 -4 -9 -9 -9 -9 0
-109 -58 -121 -70 -3 -3 -32 -23 -65 -44 -62 -41 -223 -159 -262 -192 -12 -11
-35 -29 -50 -41 -15 -12 -45 -38 -67 -57 -21 -20 -40 -36 -43 -36 -2 0 -14
-10 -27 -22 -13 -13 -64 -62 -113 -110 -105 -101 -238 -245 -313 -339 -14 -17
-30 -37 -35 -43 -23 -25 -155 -205 -191 -261 -21 -33 -45 -66 -52 -73 -6 -7
-12 -19 -12 -27 0 -7 -4 -15 -8 -17 -10 -3 -112 -176 -112 -188 0 -4 -7 -13
-15 -20 -8 -7 -13 -16 -10 -20 3 -5 2 -10 -3 -12 -10 -4 -116 -222 -165 -338
-13 -31 -82 -211 -92 -240 -1 -3 -4 -12 -8 -20 -12 -33 -36 -107 -43 -135 -8
-34 -8 -34 -17 -55 -15 -39 -71 -270 -83 -344 -3 -21 -8 -47 -10 -57 -2 -11
-6 -28 -8 -38 -3 -11 -8 -41 -12 -68 -3 -26 -8 -56 -10 -67 -2 -10 -6 -44 -9
-75 -4 -31 -8 -72 -10 -91 -27 -234 -22 -660 10 -885 3 -22 8 -58 10 -80 6
-42 31 -192 40 -235 3 -14 10 -45 15 -70 11 -51 13 -59 35 -150 9 -36 20 -74
25 -85 4 -11 17 -55 29 -98 12 -42 27 -89 33 -105 6 -15 12 -33 14 -40 4 -19
73 -199 99 -257 13 -27 38 -81 56 -120 18 -38 33 -72 33 -75 1 -3 4 -9 8 -15
3 -5 29 -55 58 -110 29 -55 58 -107 65 -115 6 -8 15 -23 18 -32 9 -26 138
-222 148 -226 5 -2 9 -8 9 -14 0 -9 59 -96 85 -124 5 -6 17 -22 25 -34 8 -12
20 -28 25 -34 6 -6 35 -42 67 -81 31 -38 70 -85 86 -102 17 -18 29 -33 27 -33
-6 0 293 -298 326 -325 13 -11 53 -45 89 -75 99 -83 151 -124 169 -134 9 -5
20 -15 24 -23 4 -7 13 -13 18 -13 6 0 17 -6 24 -13 8 -6 20 -17 27 -22 26 -20
194 -130 228 -148 19 -11 36 -23 38 -28 2 -5 7 -9 11 -9 4 0 54 -26 112 -58
57 -32 133 -72 169 -89 140 -67 179 -85 182 -83 2 1 26 -10 54 -24 29 -14 57
-26 63 -26 6 0 19 -4 29 -9 49 -25 152 -62 152 -55 0 4 6 2 13 -4 32 -26 405
-125 592 -157 17 -3 41 -7 55 -10 14 -3 43 -8 64 -10 21 -2 57 -7 80 -11 23
-3 57 -8 76 -10 19 -1 60 -6 90 -9 61 -6 264 -17 295 -15 11 1 27 1 35 1 206
-4 559 24 735 59 28 6 61 13 75 15 14 3 39 8 55 11 17 4 37 7 45 8 9 1 21 5
28 10 6 4 12 5 12 2 0 -2 29 4 65 14 36 10 65 16 65 13 0 -3 6 -1 13 5 6 6 17
11 22 12 30 3 168 43 210 59 39 16 220 83 230 85 6 2 36 15 69 29 32 15 61 27
64 27 10 0 339 168 387 198 28 17 64 39 80 48 36 20 258 166 265 174 3 3 23
19 45 35 201 148 464 388 622 570 91 105 103 119 146 175 23 30 44 57 47 60
15 14 116 158 176 250 81 126 165 272 225 395 24 50 47 92 52 93 4 2 7 10 7
18 0 8 8 29 17 47 9 18 17 34 18 37 0 3 16 41 34 85 34 79 109 286 116 315 1
8 13 47 25 87 12 39 23 80 25 90 2 10 4 18 5 18 1 0 3 8 5 17 2 9 11 48 20 85
10 37 19 79 21 93 2 14 9 45 14 70 5 25 12 59 14 75 3 17 7 41 10 55 3 14 8
45 10 70 3 25 8 68 11 95 3 28 8 64 11 80 3 17 5 36 5 43 -2 30 -1 40 4 87 13
116 6 547 -10 665 -2 19 -7 58 -10 85 -5 53 -15 127 -21 160 -3 11 -7 36 -10
55 -7 41 -31 164 -40 200 -4 14 -7 31 -7 38 0 6 -3 12 -7 12 -4 0 -6 10 -5 23
1 12 -2 33 -7 47 -6 14 -12 34 -14 45 -7 26 -8 32 -24 85 -8 25 -14 47 -15 50
-4 21 -65 195 -100 285 -112 284 -229 509 -401 770 -51 77 -99 149 -108 160
-9 11 -41 54 -73 95 -31 41 -60 77 -63 80 -4 3 -33 37 -65 75 -77 92 -109 125
-239 253 -129 127 -174 167 -280 252 -10 8 -23 20 -30 25 -6 6 -38 30 -71 54
-33 25 -61 48 -63 53 -2 4 -10 8 -17 8 -7 0 -15 3 -17 8 -5 11 -185 132 -196
132 -6 0 -12 4 -14 8 -9 22 -337 199 -518 280 -178 80 -521 196 -668 227 -9 2
-55 12 -102 23 -47 11 -112 25 -145 31 -33 6 -76 13 -95 17 -19 3 -51 7 -70 9
-37 3 -118 13 -160 20 -109 17 -544 27 -571 14 -9 -5 -20 -4 -26 2 -5 5 -12 7
-14 4z"/>
</g>
</svg>
