<svg xmlns="http://www.w3.org/2000/svg" width="118" height="115" viewBox="0 0 118 115">
  <defs>
    <style>
      .cls-1 {
        fill: #ffac1b;
      }

      .cls-2 {
        fill: #fff;
        fill-rule: evenodd;
      }
    </style>
  </defs>
  <g id="Group_3099" data-name="Group 3099" transform="translate(-968 -364)">
    <path id="Polygon_13" data-name="Polygon 13" class="cls-1" d="M74.809,0,84.96,13.679l17.231,1.728L103.964,32.2,118,42.093,110.92,57.5,118,72.907,103.964,82.8l-1.773,16.793L84.96,101.321,74.809,115,59,108.1,43.191,115,33.04,101.321,15.809,99.593,14.036,82.8,0,72.907,7.08,57.5,0,42.093,14.036,32.2l1.773-16.793L33.04,13.679,43.191,0,59,6.9Z" transform="translate(968 364)"/>
    <path id="Path_9289" data-name="Path 9289" class="cls-2" d="M4.735,4.735a2.508,2.508,0,0,1,3.547,0L19.049,15.5,29.816,4.735a2.508,2.508,0,1,1,3.547,3.547L22.6,19.049,33.363,29.816a2.508,2.508,0,1,1-3.547,3.547L19.049,22.6,8.281,33.363a2.508,2.508,0,1,1-3.547-3.547L15.5,19.049,4.735,8.281a2.508,2.508,0,0,1,0-3.547Z" transform="translate(1007.951 402.451)"/>
  </g>
</svg>
