<svg xmlns="http://www.w3.org/2000/svg" width="118" height="115" viewBox="0 0 118 115">
  <defs>
    <style>
      .cls-1 {
        fill: #2053cd;
      }

      .cls-2 {
        fill: #fff;
        fill-rule: evenodd;
      }
    </style>
  </defs>
  <g id="Group_3090" data-name="Group 3090" transform="translate(-1002 -364)">
    <path id="Polygon_12" data-name="Polygon 12" class="cls-1" d="M74.809,0,84.96,13.679l17.231,1.728L103.964,32.2,118,42.093,110.92,57.5,118,72.907,103.964,82.8l-1.773,16.793L84.96,101.321,74.809,115,59,108.1,43.191,115,33.04,101.321,15.809,99.593,14.036,82.8,0,72.907,7.08,57.5,0,42.093,14.036,32.2l1.773-16.793L33.04,13.679,43.191,0,59,6.9Z" transform="translate(1002 364)"/>
    <path id="Path_9290" data-name="Path 9290" class="cls-2" d="M39.752,5.785a2.681,2.681,0,0,1,0,3.791L18.3,31.027a2.681,2.681,0,0,1-3.791,0L3.786,20.3A2.681,2.681,0,1,1,7.577,16.51l8.829,8.83L35.961,5.785a2.681,2.681,0,0,1,3.791,0Z" transform="translate(1039.231 404.063)"/>
  </g>
</svg>
