<svg xmlns="http://www.w3.org/2000/svg" width="30.108" height="26.5" viewBox="0 0 30.108 26.5">
  <g id="baseline-date_range-24px" opacity="0.42">
    <path id="Path_219" data-name="Path 219" d="M11.036,12.125H8.357v2.25h2.679Zm5.357,0H13.715v2.25h2.679Zm5.357,0H19.072v2.25h2.679ZM24.429,4.25H23.09V2H20.411V4.25H9.7V2H7.018V4.25H5.679A2.478,2.478,0,0,0,3.013,6.5L3,22.25A2.491,2.491,0,0,0,5.679,24.5H24.429a2.5,2.5,0,0,0,2.679-2.25V6.5A2.5,2.5,0,0,0,24.429,4.25Zm0,18H5.679V9.875H24.429Z"/>
    <path id="Path_220" data-name="Path 220" d="M0,0H30.108V26.5H0Z" fill="none"/>
  </g>
</svg>
