<svg xmlns="http://www.w3.org/2000/svg" width="27.885" height="27.885" viewBox="0 0 27.885 27.885">
  <g id="baseline-forum-24px" opacity="0.42">
    <path id="Path_833" data-name="Path 833" d="M0,0H27.885V27.885H0Z" fill="none"/>
    <path id="Path_834" data-name="Path 834" d="M24.075,6.647H21.752V17.1H6.647v2.324A1.165,1.165,0,0,0,7.809,20.59H20.59l4.647,4.647V7.809A1.165,1.165,0,0,0,24.075,6.647Zm-4.647,6.971V3.162A1.165,1.165,0,0,0,18.266,2H3.162A1.165,1.165,0,0,0,2,3.162V19.428l4.647-4.647H18.266A1.165,1.165,0,0,0,19.428,13.619Z" transform="translate(0.324 0.324)"/>
  </g>
</svg>
