<svg xmlns="http://www.w3.org/2000/svg" width="24" height="24.402" viewBox="0 0 24 24.402">
  <g id="Group_125" data-name="Group 125" transform="translate(-0.037)">
    <path id="baseline-tablet_mac-24px" d="M18.5,0H4.5A2.5,2.5,0,0,0,2,2.5v19A2.5,2.5,0,0,0,4.5,24h14A2.5,2.5,0,0,0,21,21.5V2.5A2.5,2.5,0,0,0,18.5,0Zm-7,23A1.5,1.5,0,1,1,13,21.5,1.5,1.5,0,0,1,11.5,23ZM19,19H4V3H19Z" transform="translate(1 0.402)" fill="#fff"/>
    <rect id="Rectangle_3" data-name="Rectangle 3" width="24" height="24" transform="translate(0.037)" fill="none"/>
  </g>
</svg>
