<?xml version="1.0" encoding="utf-8"?>
<!-- Generator: Adobe Illustrator 24.2.3, SVG Export Plug-In . SVG Version: 6.00 Build 0)  -->
<svg version="1.1" id="Layer_1" xmlns="http://www.w3.org/2000/svg" xmlns:xlink="http://www.w3.org/1999/xlink" x="0px" y="0px"
	 viewBox="0 0 1920 1080" style="enable-background:new 0 0 1920 1080;" xml:space="preserve">
<style type="text/css">
	.st0{opacity:1;fill:url(#glow-topL_1_);enable-background:new    ;}
	.st1{opacity:1;fill:url(#glow-topR_1_);enable-background:new    ;}
	.st2{opacity:0.4;fill:url(#glow-top_1_);enable-background:new    ;}
	.st3{opacity:0.23;fill:#FFFFFF;enable-background:new   ;}
</style>
<g>
	<g id="Layer_2_1_">
		<g id="glows">			
				<radialGradient id="glow-topL_1_" cx="722.1045" cy="671.1014" r="168.45" gradientTransform="matrix(1 0 0 -1 -682.3597 689.6285)" gradientUnits="userSpaceOnUse">
				<stop  offset="0" style="stop-color:#ffffff"/>
				<stop  offset="0" style="stop-color:#ffffff;stop-opacity:0.98"/>
				<stop  offset="5.000000e-02" style="stop-color:#ffffff;stop-opacity:0.8"/>
				<stop  offset="0.1" style="stop-color:#ffffff;stop-opacity:0.63"/>
				<stop  offset="0.15" style="stop-color:#ffffff;stop-opacity:0.48"/>
				<stop  offset="0.21" style="stop-color:#ffffff;stop-opacity:0.35"/>
				<stop  offset="0.27" style="stop-color:#ffffff;stop-opacity:0.24"/>
				<stop  offset="0.34" style="stop-color:#ffffff;stop-opacity:0.15"/>
				<stop  offset="0.42" style="stop-color:#ffffff;stop-opacity:8.000000e-02"/>
				<stop  offset="0.52" style="stop-color:#ffffff;stop-opacity:4.000000e-02"/>
				<stop  offset="0.66" style="stop-color:#ffffff;stop-opacity:1.000000e-02"/>
				<stop  offset="1" style="stop-color:#ffffff;stop-opacity:0"/>
			</radialGradient>
			<circle id="glow-topL" class="st0" cx="39.7" cy="18.5" r="168.4">
			
				<animateMotion  accumulate="none" additive="replace" calcMode="paced" dur="50s" fill="remove" path="M1430.78,706.55c66.66,37.6,132.92,76,197,118.09,15.94,10.62,31.67,21.57,46.9,33.27a251.53,251.53,0,0,1,22,18.73,55.92,55.92,0,0,1,9.45,11.42,13.3,13.3,0,0,1,1.46,3.87,6,6,0,0,1-.91,4.81c-2.42,2.85-5.42,2.78-7.89,3.09-10.14.14-19.45-2.44-28.79-4.79-9.29-2.53-18.45-5.42-27.53-8.5-18.17-6.17-36.09-13-53.9-20-71.15-28.46-140.78-60.39-210-93.19s-137.67-67.06-205.72-102.15Q1071,618.08,970.76,562C904,524.46,837.77,486,773,445.14c-32.3-20.56-64.47-41.42-94.89-64.88a253.45,253.45,0,0,1-21.93-18.81c-3.41-3.46-6.84-6.93-9.42-11.41a13.07,13.07,0,0,1-1.52-3.78,5.75,5.75,0,0,1,.72-4.73c2.25-2.84,5.34-3,7.77-3.24,10.13-.21,19.41,2.46,28.74,4.82,9.28,2.55,18.42,5.47,27.48,8.63,36.17,12.73,71.47,27.62,106.55,42.91S886.32,426,920.91,442.4c-34.81-15.91-69.78-31.46-105-46.34s-70.75-29.21-106.95-41.4c-9.05-3-18.14-5.94-27.33-8.41-9.13-2.3-18.6-4.83-27.67-4.58-2.2,0-4.43.73-5.14,1.75s-.1,3.09,1,4.94c2.21,3.82,5.57,7.28,8.87,10.59a254.11,254.11,0,0,0,21.7,18.42c30.32,23.16,62.55,43.86,94.88,64.23,64.87,40.51,131.24,78.62,198.1,115.79s134.42,73.1,202.4,108.19q101.76,53.05,205.08,103c69,33.08,138.4,65.31,209.26,94,17.73,7.12,35.57,14,53.61,20.21,9,3.11,18.1,6,27.26,8.55s18.55,4.91,27.61,4.8c2.12-.11,4.55-.59,5.2-1.63.73-.84.19-2.91-.82-4.79a52.52,52.52,0,0,0-8.77-10.63,246.22,246.22,0,0,0-21.6-18.56c-15-11.71-30.74-22.64-46.53-33.4C1562.68,784.32,1496.93,745,1430.78,706.55Z" repeatCount="indefinite" restart="always">
				</animateMotion>
			</circle>
			
				<radialGradient id="glow-topR_1_" cx="1528.3689" cy="607.9496" r="168.45" gradientTransform="matrix(1 0 0 -1 -1513.8584 601.0186)" gradientUnits="userSpaceOnUse">
				<stop  offset="0" style="stop-color:#FFFFFF"/>
				<stop  offset="0" style="stop-color:#FFFFFF;stop-opacity:0.98"/>
				<stop  offset="5.000000e-02" style="stop-color:#FFFFFF;stop-opacity:0.8"/>
				<stop  offset="0.1" style="stop-color:#FFFFFF;stop-opacity:0.63"/>
				<stop  offset="0.15" style="stop-color:#FFFFFF;stop-opacity:0.48"/>
				<stop  offset="0.21" style="stop-color:#FFFFFF;stop-opacity:0.35"/>
				<stop  offset="0.27" style="stop-color:#FFFFFF;stop-opacity:0.24"/>
				<stop  offset="0.34" style="stop-color:#FFFFFF;stop-opacity:0.15"/>
				<stop  offset="0.42" style="stop-color:#FFFFFF;stop-opacity:8.000000e-02"/>
				<stop  offset="0.52" style="stop-color:#FFFFFF;stop-opacity:4.000000e-02"/>
				<stop  offset="0.66" style="stop-color:#FFFFFF;stop-opacity:1.000000e-02"/>
				<stop  offset="1" style="stop-color:#FFFFFF;stop-opacity:0"/>
			</radialGradient>
			<circle id="glow-topR" class="st1" cx="14.5" cy="-6.9" r="168.4">
			
				<animateMotion  accumulate="none" additive="replace" calcMode="paced" dur="40s" fill="remove" path="M921.92,706.55C855.26,744.15,789,782.55,725,824.64c-15.94,10.62-31.68,21.57-46.9,33.27a251.66,251.66,0,0,0-22,18.73,55.56,55.56,0,0,0-9.44,11.42,13.31,13.31,0,0,0-1.47,3.87,6,6,0,0,0,.91,4.81c2.43,2.85,5.42,2.78,7.89,3.09,10.14.14,19.45-2.44,28.79-4.79,9.29-2.53,18.45-5.42,27.54-8.5,18.16-6.17,36.08-13,53.89-20,71.15-28.46,140.78-60.39,210-93.19s137.66-67.06,205.72-102.15Q1281.71,618.08,1382,562c66.74-37.52,133-76,197.76-116.84,32.31-20.56,64.47-41.42,94.89-64.88a255.09,255.09,0,0,0,21.94-18.81c3.4-3.46,6.83-6.93,9.41-11.41a13.08,13.08,0,0,0,1.53-3.78,5.82,5.82,0,0,0-.72-4.73c-2.26-2.84-5.35-3-7.77-3.24-10.14-.21-19.42,2.46-28.75,4.82-9.27,2.55-18.42,5.47-27.47,8.63-36.18,12.73-71.47,27.62-106.56,42.91S1466.39,426,1431.8,442.4c34.8-15.91,69.77-31.46,105-46.34s70.74-29.21,106.94-41.4c9-3,18.14-5.94,27.33-8.41,9.14-2.3,18.61-4.83,27.67-4.58,2.21,0,4.43.73,5.14,1.75s.1,3.09-1,4.94c-2.2,3.82-5.56,7.28-8.87,10.59a254.11,254.11,0,0,1-21.7,18.42c-30.32,23.16-62.54,43.86-94.88,64.23-64.86,40.51-131.24,78.62-198.09,115.79S1245,630.49,1177,665.58q-101.74,53.05-205.08,103c-69,33.08-138.4,65.31-209.26,94-17.73,7.12-35.56,14-53.6,20.21-9,3.11-18.11,6-27.27,8.55s-18.54,4.91-27.61,4.8c-2.12-.11-4.54-.59-5.19-1.63-.74-.84-.19-2.91.81-4.79a52.57,52.57,0,0,1,8.78-10.63,246.09,246.09,0,0,1,21.59-18.56c15.05-11.71,30.74-22.64,46.53-33.4C790,784.32,855.78,745,921.92,706.55Z" repeatCount="indefinite" restart="always">
				</animateMotion>
			</circle>
			
				<radialGradient id="glow-top_1_" cx="1534.9956" cy="888.9615" r="72.2592" gradientTransform="matrix(1 0 0 -1 0.1054 1079.9305)" gradientUnits="userSpaceOnUse">
				<stop  offset="0" style="stop-color:#FFFFFF"/>
				<stop  offset="0" style="stop-color:#FFFFFF;stop-opacity:0.98"/>
				<stop  offset="5.000000e-02" style="stop-color:#FFFFFF;stop-opacity:0.8"/>
				<stop  offset="0.1" style="stop-color:#FFFFFF;stop-opacity:0.63"/>
				<stop  offset="0.15" style="stop-color:#FFFFFF;stop-opacity:0.48"/>
				<stop  offset="0.21" style="stop-color:#FFFFFF;stop-opacity:0.35"/>
				<stop  offset="0.27" style="stop-color:#FFFFFF;stop-opacity:0.24"/>
				<stop  offset="0.34" style="stop-color:#FFFFFF;stop-opacity:0.15"/>
				<stop  offset="0.42" style="stop-color:#FFFFFF;stop-opacity:8.000000e-02"/>
				<stop  offset="0.52" style="stop-color:#FFFFFF;stop-opacity:4.000000e-02"/>
				<stop  offset="0.66" style="stop-color:#FFFFFF;stop-opacity:1.000000e-02"/>
				<stop  offset="1" style="stop-color:#FFFFFF;stop-opacity:0"/>
			</radialGradient>
			<circle id="glow-top" class="st2" cx="1535.1" cy="191" r="72.3"/>
			<path id="path-L" class="st3" d="M1430.8,706.5c66.7,37.6,132.9,76,197,118.1c15.9,10.6,31.7,21.6,46.9,33.3
				c7.7,5.8,15,12.1,22,18.7c3.6,3.4,6.8,7.2,9.4,11.4c0.7,1.2,1.2,2.5,1.5,3.9c0.4,1.7,0.1,3.4-0.9,4.8c-2.4,2.8-5.4,2.8-7.9,3.1
				c-10.1,0.1-19.4-2.4-28.8-4.8c-9.3-2.5-18.4-5.4-27.5-8.5c-18.2-6.2-36.1-13-53.9-20c-71.2-28.5-140.8-60.4-210-93.2
				s-137.7-67.1-205.7-102.2c-67.9-35.4-135.3-71.8-202.1-109.2c-66.8-37.5-133-76-197.8-116.9c-32.3-20.6-64.5-41.4-94.9-64.9
				c-7.7-5.8-15-12.1-21.9-18.8c-3.4-3.5-6.8-6.9-9.4-11.4c-0.7-1.2-1.2-2.4-1.5-3.8c-0.5-1.6-0.2-3.3,0.7-4.7
				c2.3-2.8,5.3-3,7.8-3.2c10.1-0.2,19.4,2.5,28.7,4.8c9.3,2.5,18.4,5.5,27.5,8.6c36.2,12.7,71.5,27.6,106.5,42.9
				s69.8,31.3,104.4,47.7c-34.8-15.9-69.8-31.5-105-46.3s-70.8-29.2-107-41.4c-9-3-18.1-5.9-27.3-8.4c-9.1-2.3-18.6-4.8-27.7-4.6
				c-2.2,0-4.4,0.7-5.1,1.8s-0.1,3.1,1,4.9c2.2,3.8,5.6,7.3,8.9,10.6c6.9,6.5,14.1,12.7,21.7,18.4c30.3,23.2,62.5,43.9,94.9,64.2
				c64.9,40.5,131.2,78.6,198.1,115.8s134.4,73.1,202.4,108.2c67.8,35.4,136.2,69.7,205.1,103c69,33.1,138.4,65.3,209.3,94
				c17.7,7.1,35.6,14,53.6,20.2c9,3.1,18.1,6,27.3,8.5s18.6,4.9,27.6,4.8c2.1-0.1,4.6-0.6,5.2-1.6c0.7-0.8,0.2-2.9-0.8-4.8
				c-2.4-3.9-5.4-7.5-8.8-10.6c-6.8-6.6-14-12.8-21.6-18.6c-15-11.7-30.7-22.6-46.5-33.4C1562.7,784.3,1496.9,745,1430.8,706.5z"/>
			<path id="path-R" class="st3" d="M921.9,706.5c-66.7,37.6-132.9,76-196.9,118.1c-15.9,10.6-31.7,21.6-46.9,33.3
				c-7.7,5.8-15,12.1-22,18.7c-3.6,3.4-6.8,7.2-9.4,11.4c-0.7,1.2-1.2,2.5-1.5,3.9c-0.4,1.7-0.1,3.4,0.9,4.8
				c2.4,2.8,5.4,2.8,7.9,3.1c10.1,0.1,19.5-2.4,28.8-4.8c9.3-2.5,18.5-5.4,27.5-8.5c18.2-6.2,36.1-13,53.9-20
				c71.2-28.5,140.8-60.4,210-93.2s137.7-67.1,205.7-102.2c67.9-35.4,135.2-71.8,202.1-109.2c66.7-37.5,133-76,197.8-116.8
				c32.3-20.6,64.5-41.4,94.9-64.9c7.7-5.9,15-12.1,21.9-18.8c3.4-3.5,6.8-6.9,9.4-11.4c0.7-1.2,1.2-2.4,1.5-3.8
				c0.4-1.6,0.2-3.3-0.7-4.7c-2.3-2.8-5.3-3-7.8-3.2c-10.1-0.2-19.4,2.5-28.8,4.8c-9.3,2.5-18.4,5.5-27.5,8.6
				c-36.2,12.7-71.5,27.6-106.6,42.9s-69.9,31.3-104.5,47.7c34.8-15.9,69.8-31.5,105-46.3s70.7-29.2,106.9-41.4
				c9-3,18.1-5.9,27.3-8.4c9.1-2.3,18.6-4.8,27.7-4.6c2.2,0,4.4,0.7,5.1,1.8s0.1,3.1-1,4.9c-2.2,3.8-5.6,7.3-8.9,10.6
				c-6.9,6.5-14.1,12.7-21.7,18.4c-30.3,23.2-62.5,43.9-94.9,64.2c-64.9,40.5-131.2,78.6-198.1,115.8S1245,630.5,1177,665.6
				c-67.8,35.4-136.2,69.7-205.1,103c-69,33.1-138.4,65.3-209.3,94c-17.7,7.1-35.6,14-53.6,20.2c-9,3.1-18.1,6-27.3,8.5
				s-18.5,4.9-27.6,4.8c-2.1-0.1-4.5-0.6-5.2-1.6c-0.7-0.8-0.2-2.9,0.8-4.8c2.4-3.9,5.4-7.5,8.8-10.6c6.8-6.6,14-12.8,21.6-18.6
				c15-11.7,30.7-22.6,46.5-33.4C790,784.3,855.8,745,921.9,706.5z"/>
		</g>
	</g>
</g>
</svg>
