<svg xmlns="http://www.w3.org/2000/svg" xmlns:xlink="http://www.w3.org/1999/xlink" viewBox="0 0 1920 1080">
    <defs>
        <style>
            .cls-1 {
                isolation: isolate;
            }

            #glows .cls-2,
            #glows .cls-3,
            #glows .cls-4,
            #glows .cls-5,
            #glows .cls-6 {
                opacity: 0.43;
                mix-blend-mode: color-dodge;
            }

            #glows .cls-2 {
                fill: url(#radial-gradient);
            }

            #glows .cls-3 {
                fill: url(#radial-gradient-2);
            }

            #glows .cls-4 {
                fill: url(#radial-gradient-3);
            }

            #glows .cls-5 {
                fill: url(#radial-gradient-4);
            }

            #glows .cls-6 {
                fill: url(#radial-gradient-5);
            }

            #glows .cls-7 {
                fill: #fff;
                opacity: 0.23;
                mix-blend-mode: overlay;
            }

        </style>
        <radialGradient id="radial-gradient" cx="722.11" cy="408.9" r="168.45"
            gradientTransform="translate(500.64 -390.84) rotate(45)" gradientUnits="userSpaceOnUse">
            <stop offset="0" stop-color="#fff" />
            <stop offset="0" stop-color="#fff" stop-opacity="0.98" />
            <stop offset="0.05" stop-color="#fff" stop-opacity="0.8" />
            <stop offset="0.1" stop-color="#fff" stop-opacity="0.63" />
            <stop offset="0.15" stop-color="#fff" stop-opacity="0.48" />
            <stop offset="0.21" stop-color="#fff" stop-opacity="0.35" />
            <stop offset="0.27" stop-color="#fff" stop-opacity="0.24" />
            <stop offset="0.34" stop-color="#fff" stop-opacity="0.15" />
            <stop offset="0.42" stop-color="#fff" stop-opacity="0.08" />
            <stop offset="0.52" stop-color="#fff" stop-opacity="0.04" />
            <stop offset="0.66" stop-color="#fff" stop-opacity="0.01" />
            <stop offset="1" stop-color="#fff" stop-opacity="0" />
        </radialGradient>
        <radialGradient id="radial-gradient-2" cx="1017.18" cy="751.05" r="168.45"
            gradientTransform="translate(1553.32 -394.07) rotate(78.65)" xlink:href="#radial-gradient" />
        <radialGradient id="radial-gradient-3" cx="1593.06" cy="867.53" r="115.97" gradientUnits="userSpaceOnUse">
            <stop offset="0" stop-color="#fff" />
            <stop offset="0.02" stop-color="#fff" stop-opacity="0.92" />
            <stop offset="0.07" stop-color="#fff" stop-opacity="0.73" />
            <stop offset="0.12" stop-color="#fff" stop-opacity="0.56" />
            <stop offset="0.18" stop-color="#fff" stop-opacity="0.41" />
            <stop offset="0.24" stop-color="#fff" stop-opacity="0.28" />
            <stop offset="0.3" stop-color="#fff" stop-opacity="0.18" />
            <stop offset="0.37" stop-color="#fff" stop-opacity="0.1" />
            <stop offset="0.45" stop-color="#fff" stop-opacity="0.05" />
            <stop offset="0.55" stop-color="#fff" stop-opacity="0.01" />
            <stop offset="0.71" stop-color="#fff" stop-opacity="0" />
            <stop offset="1" stop-color="#fff" stop-opacity="0" />
        </radialGradient>
        <radialGradient id="radial-gradient-4" cx="1528.37" cy="472.05" r="168.45"
            gradientTransform="translate(781.44 -942.46) rotate(45)" xlink:href="#radial-gradient" />
        <radialGradient id="radial-gradient-5" cx="1535.01" cy="190.94" r="72.25"
            gradientTransform="translate(1507.32 -1355.65) rotate(81.88)" xlink:href="#radial-gradient" />
    </defs>
    <g class="cls-1">
        <g id="Layer_2" data-name="Layer 2">
            <g id="glows">
                <circle id="glow-topL" class="cls-2" cx="722.11" cy="408.9" r="168.45"
                    transform="translate(-760 240) rotate(-45)">
                    <animateMotion dur="50s" repeatCount="indefinite"
                        path="M1430.78,706.55c66.66,37.6,132.92,76,197,118.09,15.94,10.62,31.67,21.57,46.9,33.27a251.53,251.53,0,0,1,22,18.73,55.92,55.92,0,0,1,9.45,11.42,13.3,13.3,0,0,1,1.46,3.87,6,6,0,0,1-.91,4.81c-2.42,2.85-5.42,2.78-7.89,3.09-10.14.14-19.45-2.44-28.79-4.79-9.29-2.53-18.45-5.42-27.53-8.5-18.17-6.17-36.09-13-53.9-20-71.15-28.46-140.78-60.39-210-93.19s-137.67-67.06-205.72-102.15Q1071,618.08,970.76,562C904,524.46,837.77,486,773,445.14c-32.3-20.56-64.47-41.42-94.89-64.88a253.45,253.45,0,0,1-21.93-18.81c-3.41-3.46-6.84-6.93-9.42-11.41a13.07,13.07,0,0,1-1.52-3.78,5.75,5.75,0,0,1,.72-4.73c2.25-2.84,5.34-3,7.77-3.24,10.13-.21,19.41,2.46,28.74,4.82,9.28,2.55,18.42,5.47,27.48,8.63,36.17,12.73,71.47,27.62,106.55,42.91S886.32,426,920.91,442.4c-34.81-15.91-69.78-31.46-105-46.34s-70.75-29.21-106.95-41.4c-9.05-3-18.14-5.94-27.33-8.41-9.13-2.3-18.6-4.83-27.67-4.58-2.2,0-4.43.73-5.14,1.75s-.1,3.09,1,4.94c2.21,3.82,5.57,7.28,8.87,10.59a254.11,254.11,0,0,0,21.7,18.42c30.32,23.16,62.55,43.86,94.88,64.23,64.87,40.51,131.24,78.62,198.1,115.79s134.42,73.1,202.4,108.19q101.76,53.05,205.08,103c69,33.08,138.4,65.31,209.26,94,17.73,7.12,35.57,14,53.61,20.21,9,3.11,18.1,6,27.26,8.55s18.55,4.91,27.61,4.8c2.12-.11,4.55-.59,5.2-1.63.73-.84.19-2.91-.82-4.79a52.52,52.52,0,0,0-8.77-10.63,246.22,246.22,0,0,0-21.6-18.56c-15-11.71-30.74-22.64-46.53-33.4C1562.68,784.32,1496.93,745,1430.78,706.55Z" />
                </circle>
                <circle id="glow-topR" class="cls-5" cx="1528.37" cy="472.05" r="168.45"
                    transform="translate(-1400 740) rotate(-45)">
                    <animateMotion dur="40s" repeatCount="indefinite"
                        path="M921.92,706.55C855.26,744.15,789,782.55,725,824.64c-15.94,10.62-31.68,21.57-46.9,33.27a251.66,251.66,0,0,0-22,18.73,55.56,55.56,0,0,0-9.44,11.42,13.31,13.31,0,0,0-1.47,3.87,6,6,0,0,0,.91,4.81c2.43,2.85,5.42,2.78,7.89,3.09,10.14.14,19.45-2.44,28.79-4.79,9.29-2.53,18.45-5.42,27.54-8.5,18.16-6.17,36.08-13,53.89-20,71.15-28.46,140.78-60.39,210-93.19s137.66-67.06,205.72-102.15Q1281.71,618.08,1382,562c66.74-37.52,133-76,197.76-116.84,32.31-20.56,64.47-41.42,94.89-64.88a255.09,255.09,0,0,0,21.94-18.81c3.4-3.46,6.83-6.93,9.41-11.41a13.08,13.08,0,0,0,1.53-3.78,5.82,5.82,0,0,0-.72-4.73c-2.26-2.84-5.35-3-7.77-3.24-10.14-.21-19.42,2.46-28.75,4.82-9.27,2.55-18.42,5.47-27.47,8.63-36.18,12.73-71.47,27.62-106.56,42.91S1466.39,426,1431.8,442.4c34.8-15.91,69.77-31.46,105-46.34s70.74-29.21,106.94-41.4c9-3,18.14-5.94,27.33-8.41,9.14-2.3,18.61-4.83,27.67-4.58,2.21,0,4.43.73,5.14,1.75s.1,3.09-1,4.94c-2.2,3.82-5.56,7.28-8.87,10.59a254.11,254.11,0,0,1-21.7,18.42c-30.32,23.16-62.54,43.86-94.88,64.23-64.86,40.51-131.24,78.62-198.09,115.79S1245,630.49,1177,665.58q-101.74,53.05-205.08,103c-69,33.08-138.4,65.31-209.26,94-17.73,7.12-35.56,14-53.6,20.21-9,3.11-18.11,6-27.27,8.55s-18.54,4.91-27.61,4.8c-2.12-.11-4.54-.59-5.19-1.63-.74-.84-.19-2.91.81-4.79a52.57,52.57,0,0,1,8.78-10.63,246.09,246.09,0,0,1,21.59-18.56c15.05-11.71,30.74-22.64,46.53-33.4C790,784.32,855.78,745,921.92,706.55Z" />
                </circle>
                <circle id="glow-top" class="cls-6" cx="1535.01" cy="190.94" r="72.25"
                    transform="translate(1129.26 1683.62) rotate(-81.88)" />
                <path id="path-L" class="cls-7"
                    d="M1430.78,706.55c66.66,37.6,132.92,76,197,118.09,15.94,10.62,31.67,21.57,46.9,33.27a251.53,251.53,0,0,1,22,18.73,55.92,55.92,0,0,1,9.45,11.42,13.3,13.3,0,0,1,1.46,3.87,6,6,0,0,1-.91,4.81c-2.42,2.85-5.42,2.78-7.89,3.09-10.14.14-19.45-2.44-28.79-4.79-9.29-2.53-18.45-5.42-27.53-8.5-18.17-6.17-36.09-13-53.9-20-71.15-28.46-140.78-60.39-210-93.19s-137.67-67.06-205.72-102.15Q1071,618.08,970.76,562C904,524.46,837.77,486,773,445.14c-32.3-20.56-64.47-41.42-94.89-64.88a253.45,253.45,0,0,1-21.93-18.81c-3.41-3.46-6.84-6.93-9.42-11.41a13.07,13.07,0,0,1-1.52-3.78,5.75,5.75,0,0,1,.72-4.73c2.25-2.84,5.34-3,7.77-3.24,10.13-.21,19.41,2.46,28.74,4.82,9.28,2.55,18.42,5.47,27.48,8.63,36.17,12.73,71.47,27.62,106.55,42.91S886.32,426,920.91,442.4c-34.81-15.91-69.78-31.46-105-46.34s-70.75-29.21-106.95-41.4c-9.05-3-18.14-5.94-27.33-8.41-9.13-2.3-18.6-4.83-27.67-4.58-2.2,0-4.43.73-5.14,1.75s-.1,3.09,1,4.94c2.21,3.82,5.57,7.28,8.87,10.59a254.11,254.11,0,0,0,21.7,18.42c30.32,23.16,62.55,43.86,94.88,64.23,64.87,40.51,131.24,78.62,198.1,115.79s134.42,73.1,202.4,108.19q101.76,53.05,205.08,103c69,33.08,138.4,65.31,209.26,94,17.73,7.12,35.57,14,53.61,20.21,9,3.11,18.1,6,27.26,8.55s18.55,4.91,27.61,4.8c2.12-.11,4.55-.59,5.2-1.63.73-.84.19-2.91-.82-4.79a52.52,52.52,0,0,0-8.77-10.63,246.22,246.22,0,0,0-21.6-18.56c-15-11.71-30.74-22.64-46.53-33.4C1562.68,784.32,1496.93,745,1430.78,706.55Z" />
                <path id="path-R" class="cls-7"
                    d="M921.92,706.55C855.26,744.15,789,782.55,725,824.64c-15.94,10.62-31.68,21.57-46.9,33.27a251.66,251.66,0,0,0-22,18.73,55.56,55.56,0,0,0-9.44,11.42,13.31,13.31,0,0,0-1.47,3.87,6,6,0,0,0,.91,4.81c2.43,2.85,5.42,2.78,7.89,3.09,10.14.14,19.45-2.44,28.79-4.79,9.29-2.53,18.45-5.42,27.54-8.5,18.16-6.17,36.08-13,53.89-20,71.15-28.46,140.78-60.39,210-93.19s137.66-67.06,205.72-102.15Q1281.71,618.08,1382,562c66.74-37.52,133-76,197.76-116.84,32.31-20.56,64.47-41.42,94.89-64.88a255.09,255.09,0,0,0,21.94-18.81c3.4-3.46,6.83-6.93,9.41-11.41a13.08,13.08,0,0,0,1.53-3.78,5.82,5.82,0,0,0-.72-4.73c-2.26-2.84-5.35-3-7.77-3.24-10.14-.21-19.42,2.46-28.75,4.82-9.27,2.55-18.42,5.47-27.47,8.63-36.18,12.73-71.47,27.62-106.56,42.91S1466.39,426,1431.8,442.4c34.8-15.91,69.77-31.46,105-46.34s70.74-29.21,106.94-41.4c9-3,18.14-5.94,27.33-8.41,9.14-2.3,18.61-4.83,27.67-4.58,2.21,0,4.43.73,5.14,1.75s.1,3.09-1,4.94c-2.2,3.82-5.56,7.28-8.87,10.59a254.11,254.11,0,0,1-21.7,18.42c-30.32,23.16-62.54,43.86-94.88,64.23-64.86,40.51-131.24,78.62-198.09,115.79S1245,630.49,1177,665.58q-101.74,53.05-205.08,103c-69,33.08-138.4,65.31-209.26,94-17.73,7.12-35.56,14-53.6,20.21-9,3.11-18.11,6-27.27,8.55s-18.54,4.91-27.61,4.8c-2.12-.11-4.54-.59-5.19-1.63-.74-.84-.19-2.91.81-4.79a52.57,52.57,0,0,1,8.78-10.63,246.09,246.09,0,0,1,21.59-18.56c15.05-11.71,30.74-22.64,46.53-33.4C790,784.32,855.78,745,921.92,706.55Z" />
            </g>
        </g>
    </g>
</svg>
