<svg id="Group_3111" data-name="Group 3111" xmlns="http://www.w3.org/2000/svg" width="39.82" height="39.829" viewBox="0 0 39.82 39.829">
  <defs>
    <style>
      .cls-1 {
        fill: #fff;
      }
    </style>
  </defs>
  <path id="Path_8927" data-name="Path 8927" class="cls-1" d="M16.675,10.373A48.9,48.9,0,0,0,9.389,22.395L2,19.231l8.266-8.266a4.11,4.11,0,0,1,3.694-1.123l2.715.531ZM20.716,32.11s7.634-3.164,12.022-7.552C43.76,13.536,41.923,4.923,41.331,2.984,39.392,2.372,30.779.555,19.757,11.577,15.369,15.965,12.205,23.6,12.205,23.6Zm13.226-4.47a48.9,48.9,0,0,1-12.022,7.287l3.164,7.389,8.266-8.266a4.11,4.11,0,0,0,1.123-3.694l-.531-2.715ZM16.287,34.151a6.109,6.109,0,0,1-1.8,4.327C12.083,40.887,2,42.315,2,42.315S3.429,32.233,5.837,29.824a6.119,6.119,0,0,1,10.45,4.327Zm8.164-18.37a4.082,4.082,0,1,1,4.082,4.082A4.094,4.094,0,0,1,24.452,15.782Z" transform="translate(-2 -2.486)"/>
</svg>
