<svg xmlns="http://www.w3.org/2000/svg" width="40.821" height="40.821" viewBox="0 0 40.821 40.821">
  <defs>
    <style>
      .cls-1 {
        fill: #fff;
      }
    </style>
  </defs>
  <path id="Path_8929" data-name="Path 8929" class="cls-1" d="M13.246,34.657a4.082,4.082,0,1,0,4.082,4.082A4.077,4.077,0,0,0,13.246,34.657ZM1,2V6.082H5.082L12.43,21.574l-2.755,5a3.946,3.946,0,0,0-.51,1.959,4.094,4.094,0,0,0,4.082,4.082H37.739V28.534H14.1a.505.505,0,0,1-.51-.51l.061-.245,1.837-3.327H30.7a4.063,4.063,0,0,0,3.572-2.1L41.576,9.1a1.994,1.994,0,0,0,.245-.98A2.047,2.047,0,0,0,39.78,6.082H9.593L7.674,2H1ZM33.657,34.657a4.082,4.082,0,1,0,4.082,4.082A4.077,4.077,0,0,0,33.657,34.657Z" transform="translate(-1 -2)"/>
</svg>
