<svg xmlns="http://www.w3.org/2000/svg" width="28.575" height="40.821" viewBox="0 0 28.575 40.821">
  <defs>
    <style>
      .cls-1 {
        fill: #fff;
      }
    </style>
  </defs>
  <path id="Path_8926" data-name="Path 8926" class="cls-1" d="M13.164,40.78a2.045,2.045,0,0,0,2.041,2.041H23.37a2.045,2.045,0,0,0,2.041-2.041V38.739H13.164ZM19.287,2A14.2,14.2,0,0,0,5,16.287a13.934,13.934,0,0,0,6.123,11.634v4.694a2.045,2.045,0,0,0,2.041,2.041H25.411a2.045,2.045,0,0,0,2.041-2.041V27.921a14.5,14.5,0,0,0,6.123-11.634A14.2,14.2,0,0,0,19.287,2Z" transform="translate(-5 -2)"/>
</svg>
