<svg xmlns="http://www.w3.org/2000/svg" width="44.824" height="43.397" viewBox="0 0 44.824 43.397">
  <defs>
    <style>
      .cls-1 {
        fill: #fff;
      }
    </style>
  </defs>
  <g id="Group_3099" data-name="Group 3099" transform="translate(1 0.609)">
    <path id="Rectangle_1363" data-name="Rectangle 1363" class="cls-1" d="M2-1H19.557V16.557a3,3,0,0,1-3,3H-1V2A3,3,0,0,1,2-1ZM17.557,1H2A1,1,0,0,0,1,2V17.557H16.557a1,1,0,0,0,1-1Z" transform="translate(0 0.391)"/>
    <path id="Rectangle_1364" data-name="Rectangle 1364" class="cls-1" d="M-1-1H16.557a3,3,0,0,1,3,3V18.13H2a3,3,0,0,1-3-3ZM17.557,16.13V2a1,1,0,0,0-1-1H1V15.13a1,1,0,0,0,1,1Z" transform="translate(0 24.658)"/>
    <path id="Rectangle_1362" data-name="Rectangle 1362" class="cls-1" d="M2-1H19.557V15.13a3,3,0,0,1-3,3H-1V2A3,3,0,0,1,2-1ZM17.557,1H2A1,1,0,0,0,1,2V16.13H16.557a1,1,0,0,0,1-1Z" transform="translate(24.267 24.658)"/>
    <path id="Rectangle_1390" data-name="Rectangle 1390" class="cls-1" d="M5-1h7.277a6.007,6.007,0,0,1,6,6v7.277a6.007,6.007,0,0,1-6,6H5a6.007,6.007,0,0,1-6-6V5A6.007,6.007,0,0,1,5-1Zm7.277,17.277a4,4,0,0,0,4-4V5a4,4,0,0,0-4-4H5A4,4,0,0,0,1,5v7.277a4,4,0,0,0,4,4Z" transform="translate(24.267 1.105)"/>
    <path id="Path_7624" data-name="Path 7624" class="cls-1" transform="translate(22.99 9.42)"/>
  </g>
</svg>
