<?xml version="1.0" standalone="no"?>
<!DOCTYPE svg PUBLIC "-//W3C//DTD SVG 20010904//EN"
 "http://www.w3.org/TR/2001/REC-SVG-20010904/DTD/svg10.dtd">
<svg version="1.0" xmlns="http://www.w3.org/2000/svg"
 width="70.000000pt" height="70.000000pt" viewBox="0 0 70.000000 70.000000"
 preserveAspectRatio="xMidYMid meet">
<metadata>
Created by potrace 1.14, written by Peter Selinger 2001-2017
</metadata>
<g transform="translate(0.000000,70.000000) scale(0.100000,-0.100000)"
fill="#000000" stroke="none">
<path d="M515 668 c-30 -16 -45 -39 -45 -69 0 -41 9 -58 42 -75 75 -39 149 34
111 109 -21 41 -69 57 -108 35z m76 -39 c36 -36 -1 -96 -51 -84 -29 8 -40 21
-40 52 0 49 54 69 91 32z"/>
<path d="M334 639 c-111 -13 -193 -74 -242 -178 -31 -67 -34 -151 -8 -233 23
-71 16 -116 -26 -164 l-31 -35 194 1 c160 1 203 5 246 20 165 58 247 232 187
398 -9 23 -17 42 -19 42 -1 0 -16 -7 -31 -15 -90 -47 -194 19 -194 122 0 23
-3 43 -7 46 -5 2 -36 0 -69 -4z"/>
</g>
</svg>
