<?xml version="1.0" standalone="no"?>
<!DOCTYPE svg PUBLIC "-//W3C//DTD SVG 20010904//EN"
 "http://www.w3.org/TR/2001/REC-SVG-20010904/DTD/svg10.dtd">
<svg version="1.0" xmlns="http://www.w3.org/2000/svg"
 width="319.000000pt" height="319.000000pt" viewBox="0 0 319.000000 319.000000"
 preserveAspectRatio="xMidYMid meet">
<metadata>
Created by potrace 1.14, written by Peter Selinger 2001-2017
</metadata>
<g transform="translate(0.000000,319.000000) scale(0.100000,-0.100000)"
fill="#000000" stroke="none">
<path d="M1517 3165 c-1 -1 -36 -5 -77 -8 -167 -13 -345 -62 -520 -144 -477
-221 -829 -709 -887 -1228 -17 -149 -7 -385 22 -520 43 -203 163 -469 275
-609 250 -314 537 -504 895 -590 133 -32 203 -40 365 -40 281 0 474 45 713
166 255 130 456 311 610 548 74 114 153 279 172 357 3 10 16 59 30 108 31 110
52 288 49 415 -2 115 -6 152 -40 335 -11 62 -75 237 -119 329 -174 357 -485
640 -855 779 -97 36 -231 74 -291 81 -121 15 -154 18 -242 20 -53 1 -98 2
-100 1z"/>
</g>
</svg>
