<svg xmlns="http://www.w3.org/2000/svg" width="501.242" height="718.275" viewBox="0 0 501.242 718.275">
  <defs>
    <style>
      .cls-1 {
        fill: #10518f;
      }

      .cls-2 {
        opacity: 0.31;
      }

      .cls-3 {
        fill: #00aeef;
      }

      .cls-4 {
        fill: #fff;
      }
    </style>
  </defs>
  <g id="Group_551" data-name="Group 551" transform="translate(-59 -2025.906)">
    <g id="Group_345" data-name="Group 345" transform="matrix(0.966, 0.259, -0.259, 0.966, 148.166, 2012.1)">
      <g id="Group_344" data-name="Group 344" transform="translate(0 0)">
        <g id="Group_328" data-name="Group 328" transform="translate(143.068 44.811)">
          <path id="Path_6469" data-name="Path 6469" class="cls-1" d="M1803.316,724.465c-6.3,11.4-11.826,12.8-16.333,10.357S1780.7,727,1787,715.6c11.475-20.765,25.182-26.368,25.182-26.368S1814.96,703.4,1803.316,724.465Z" transform="translate(-1782.911 -689.232)"/>
        </g>
        <g id="Group_343" data-name="Group 343">
          <g id="Group_330" data-name="Group 330" transform="translate(57.191 144.544)">
            <g id="Group_329" data-name="Group 329">
              <path id="Path_6470" data-name="Path 6470" class="cls-1" d="M1959.707,982.8l-2.233,1.074c-.167-.34-17.18-34.59-57.094-75.874-36.83-38.091-101.25-90.136-199-121.753l.769-2.34c98.286,31.792,163.061,84.148,200.093,122.471C1942.4,947.932,1959.538,982.459,1959.707,982.8Z" transform="translate(-1701.385 -783.912)"/>
            </g>
          </g>
          <g id="Group_332" data-name="Group 332" transform="translate(92.426 38.64)">
            <g id="Group_331" data-name="Group 331">
              <path id="Path_6471" data-name="Path 6471" class="cls-1" d="M1807.668,838.745l-2.481-.076c2.785-89.3-69.621-152.809-70.353-153.44l1.628-1.856C1737.2,684.011,1810.49,748.263,1807.668,838.745Z" transform="translate(-1734.835 -683.373)"/>
            </g>
          </g>
          <g id="Group_334" data-name="Group 334" transform="translate(67.81 170.088)">
            <g id="Group_333" data-name="Group 333">
              <path id="Path_6472" data-name="Path 6472" class="cls-1" d="M1756.187,816.829c-21.635,12.82-44.458,11.768-44.721,11.753l.135-2.455c.292.016,29.522,1.329,52.6-17.966l1.6,1.879A73.079,73.079,0,0,1,1756.187,816.829Z" transform="translate(-1711.466 -808.161)"/>
            </g>
          </g>
          <g id="Group_336" data-name="Group 336" transform="translate(0 133.124)">
            <g id="Group_335" data-name="Group 335">
              <path id="Path_6473" data-name="Path 6473" class="cls-1" d="M1695.762,775.9c17.345,3.4,21.7,8.463,20.7,13.461S1709.5,797.4,1692.152,794c-31.595-6.194-45.06-18.237-45.06-18.237S1663.707,769.615,1695.762,775.9Z" transform="translate(-1647.092 -773.07)"/>
            </g>
          </g>
          <g id="Group_338" data-name="Group 338" transform="translate(22.959 179.756)">
            <g id="Group_337" data-name="Group 337">
              <path id="Path_6474" data-name="Path 6474" class="cls-1" d="M1715.336,817.881c17.571-1.942,23.258,1.584,23.828,6.648s-4.2,9.745-21.767,11.687c-32.008,3.538-48.51-3.919-48.51-3.919S1682.861,821.471,1715.336,817.881Z" transform="translate(-1668.888 -817.34)"/>
            </g>
          </g>
          <g id="Group_340" data-name="Group 340" transform="translate(82.719 113.382)">
            <g id="Group_339" data-name="Group 339">
              <path id="Path_6475" data-name="Path 6475" class="cls-1" d="M1756.938,773.157c9.115,9.342,8.833,14.993,5.139,18.535s-9.4,3.634-18.514-5.708c-16.605-17.017-17.943-31.656-17.943-31.656S1740.091,755.892,1756.938,773.157Z" transform="translate(-1725.62 -754.328)"/>
            </g>
          </g>
          <g id="Group_342" data-name="Group 342" transform="translate(53.343)">
            <g id="Group_341" data-name="Group 341">
              <path id="Path_6476" data-name="Path 6476" class="cls-1" d="M1737.777,674.115c12.357,12.536,13.053,19.151,9.379,22.713s-10.33,2.718-22.687-9.817c-22.51-22.836-26.737-40.32-26.737-40.32S1714.938,650.948,1737.777,674.115Z" transform="translate(-1697.732 -646.691)"/>
            </g>
          </g>
        </g>
      </g>
    </g>
    <g id="Group_347" data-name="Group 347" class="cls-2" transform="translate(102.751 2294.552)">
      <path id="Path_6478" data-name="Path 6478" class="cls-3" d="M1931.352,1094.316S1692.77,794.77,1595.527,865.67s214.409,163.6,280.474,253.1Z" transform="translate(-1576.887 -854.813)"/>
    </g>
    <g id="Group_349" data-name="Group 349" transform="translate(161.341 2340.388)">
      <g id="Group_348" data-name="Group 348" transform="translate(0 0)">
        <path id="Path_6479" data-name="Path 6479" class="cls-4" d="M1897.542,1105.946c-44.491-62.636-114.178-115-164.8-147.892-54.885-35.662-99.784-56.75-100.231-56.959l1.317-2.768c.449.21,45.544,21.389,100.607,57.166,50.849,33.042,120.863,85.659,165.634,148.69Z" transform="translate(-1632.508 -898.327)"/>
      </g>
    </g>
    <g id="Group_352" data-name="Group 352" class="cls-2" transform="translate(59 2413.145)">
      <g id="Group_351" data-name="Group 351">
        <path id="Path_6480" data-name="Path 6480" class="cls-3" d="M1958.475,1258.917c-38.795-.734,1.941,38.265-44.472,39.517-57.983-5.052-81.765-31.879-90.032-44.977a95.755,95.755,0,0,0-15.2-18.633c-17.77-16.755-22.688-12.086-77.929-2.362-46.866,8.227-52.362-32.693-72.256-62.317-.358-.543-.728-1.078-1.1-1.613-7.676-10.967-17.531-20.184-32.512-24.45a192.307,192.307,0,0,1-46.358-20.058q-1.771-1.065-3.5-2.186c-28.191-18.084-47.192-42.975-36.953-68.726.238-.61.5-1.221.772-1.824a54.51,54.51,0,0,1,8.286-12.816c37.852-44.508,76.219-28.678,120.5-21.821,24.484,3.787,59.415-27.1,93.731-41.786.49-.211.986-.417,1.476-.623,27.243-11.284,54-11.882,74.7,23.721,0,.006.006.006.006.013.421.722.842,1.438,1.257,2.141,46.268,78.4,69.171,50.181,134.322,64.7,12.117,2.709,23.028,5.705,30.233,12.094C2070.623,1136.461,2025.528,1218.844,1958.475,1258.917Z" transform="translate(-1535.353 -967.397)"/>
      </g>
    </g>
    <g id="Group_363" data-name="Group 363" transform="translate(61.636 2419.824)">
      <g id="Group_354" data-name="Group 354" transform="translate(0 77.157)">
        <g id="Group_353" data-name="Group 353">
          <path id="Path_6481" data-name="Path 6481" class="cls-4" d="M1963.957,1178.133l2.328-2.982c-1.325-1.017-136.036-102.122-428.088-128.165l-.341,3.758C1828.81,1076.689,1962.637,1177.121,1963.957,1178.133Z" transform="translate(-1537.855 -1046.986)"/>
        </g>
      </g>
      <g id="Group_356" data-name="Group 356" transform="translate(249.259 23.337)">
        <g id="Group_355" data-name="Group 355">
          <path id="Path_6482" data-name="Path 6482" class="cls-4" d="M1776.839,1056.888c40.889-31.884,49.509-58.765,49.856-59.894l-3.638-1.1c-.082.266-8.727,26.962-48.572,58.032Z" transform="translate(-1774.485 -995.893)"/>
        </g>
      </g>
      <g id="Group_358" data-name="Group 358" transform="translate(221.553 0)">
        <g id="Group_357" data-name="Group 357">
          <path id="Path_6483" data-name="Path 6483" class="cls-4" d="M1768.842,1098.229c12.106-18.226,12.909-45.588,2.321-79.125a250.887,250.887,0,0,0-19.689-45.367l-3.291,1.89c.456.781,45.32,78.619,17.48,120.53Z" transform="translate(-1748.183 -973.738)"/>
        </g>
      </g>
      <g id="Group_360" data-name="Group 360" transform="translate(36.943 104.142)">
        <g id="Group_359" data-name="Group 359">
          <path id="Path_6484" data-name="Path 6484" class="cls-4" d="M1701.65,1081.339c4.847-3.508,7.495-5.82,7.615-5.926l-2.538-2.809c-.553.493-56.367,49.137-133.437,41.745l-.364,3.752C1635.026,1124.058,1683.593,1094.408,1701.65,1081.339Z" transform="translate(-1572.926 -1072.604)"/>
        </g>
      </g>
      <g id="Group_362" data-name="Group 362" transform="translate(119.246 123.176)">
        <g id="Group_361" data-name="Group 361">
          <path id="Path_6485" data-name="Path 6485" class="cls-4" d="M1653.719,1164.894c18.928-18.333,25.262-37.481,27.242-50.315,2.154-13.971-.181-23.506-.281-23.906l-3.692.912c.091.367,8.729,37.047-25.929,70.613Z" transform="translate(-1651.059 -1090.673)"/>
        </g>
      </g>
    </g>
    <g id="Group_365" data-name="Group 365" transform="translate(102.751 2406.894)">
      <path id="Path_6486" data-name="Path 6486" class="cls-1" d="M1589.65,981.3c-12.093-5.023-14.079-10.326-12.094-15.025s7.192-7.013,19.284-1.991c22.027,9.15,29.078,22.08,29.078,22.08S1612,990.584,1589.65,981.3Z" transform="translate(-1576.887 -961.464)"/>
    </g>
  </g>
</svg>
