<svg xmlns="http://www.w3.org/2000/svg" width="501.242" height="449.63" viewBox="0 0 501.242 449.63">
  <defs>
    <style>
      .cls-1 {
        fill: #f5c26a;
      }

      .cls-2 {
        fill: #fff;
      }

      .cls-3 {
        fill: #714800;
      }
    </style>
  </defs>
  <g id="Group_550" data-name="Group 550" transform="translate(-1387 -2195.717)">
    <g id="Group_347" data-name="Group 347" transform="translate(1490.026 2195.717)">
      <path id="Path_6478" data-name="Path 6478" class="cls-1" d="M1576.887,1094.316S1815.469,794.77,1912.712,865.67s-214.409,163.6-280.474,253.1Z" transform="translate(-1576.887 -854.813)"/>
    </g>
    <g id="Group_349" data-name="Group 349" transform="translate(1518.343 2241.553)">
      <g id="Group_348" data-name="Group 348">
        <path id="Path_6479" data-name="Path 6479" class="cls-2" d="M1635.032,1105.946c44.491-62.636,114.178-115,164.8-147.892,54.885-35.662,99.784-56.75,100.231-56.959l-1.317-2.768c-.449.21-45.545,21.389-100.607,57.166-50.849,33.042-120.863,85.659-165.634,148.69Z" transform="translate(-1632.508 -898.327)"/>
      </g>
    </g>
    <g id="Group_352" data-name="Group 352" transform="translate(1387 2314.31)">
      <g id="Group_351" data-name="Group 351" transform="translate(0 0)">
        <path id="Path_6480" data-name="Path 6480" class="cls-1" d="M1613.472,1258.917c38.794-.734-1.941,38.265,44.472,39.517,57.983-5.052,81.765-31.879,90.032-44.977a95.755,95.755,0,0,1,15.2-18.633c17.77-16.755,22.688-12.086,77.929-2.362,46.866,8.227,52.362-32.693,72.256-62.317.358-.543.728-1.078,1.1-1.613,7.676-10.967,17.531-20.184,32.512-24.45a192.3,192.3,0,0,0,46.358-20.058q1.771-1.065,3.5-2.186c28.191-18.084,47.192-42.975,36.953-68.726-.238-.61-.5-1.221-.772-1.824a54.505,54.505,0,0,0-8.286-12.816c-37.852-44.508-76.219-28.678-120.5-21.821-24.485,3.787-59.415-27.1-93.731-41.786-.49-.211-.986-.417-1.476-.623-27.243-11.284-54-11.882-74.7,23.721,0,.006-.006.006-.006.013-.421.722-.842,1.438-1.257,2.141-46.268,78.4-69.171,50.181-134.321,64.7-12.117,2.709-23.028,5.705-30.233,12.094C1501.324,1136.461,1546.419,1218.844,1613.472,1258.917Z" transform="translate(-1535.353 -967.397)"/>
      </g>
    </g>
    <g id="Group_363" data-name="Group 363" transform="translate(1457.176 2320.989)">
      <g id="Group_354" data-name="Group 354" transform="translate(0 77.157)">
        <g id="Group_353" data-name="Group 353">
          <path id="Path_6481" data-name="Path 6481" class="cls-2" d="M1540.183,1178.133l-2.328-2.982c1.325-1.017,136.036-102.122,428.088-128.165l.341,3.758C1675.329,1076.689,1541.5,1177.121,1540.183,1178.133Z" transform="translate(-1537.855 -1046.986)"/>
        </g>
      </g>
      <g id="Group_356" data-name="Group 356" transform="translate(126.96 23.337)">
        <g id="Group_355" data-name="Group 355">
          <path id="Path_6482" data-name="Path 6482" class="cls-2" d="M1824.341,1056.888c-40.889-31.884-49.509-58.765-49.856-59.894l3.639-1.1c.082.266,8.727,26.962,48.572,58.032Z" transform="translate(-1774.485 -995.893)"/>
        </g>
      </g>
      <g id="Group_358" data-name="Group 358" transform="translate(176.507)">
        <g id="Group_357" data-name="Group 357">
          <path id="Path_6483" data-name="Path 6483" class="cls-2" d="M1757.894,1098.229c-12.106-18.226-12.909-45.588-2.321-79.125a250.882,250.882,0,0,1,19.688-45.367l3.291,1.89c-.456.781-45.32,78.619-17.48,120.53Z" transform="translate(-1748.183 -973.738)"/>
        </g>
      </g>
      <g id="Group_360" data-name="Group 360" transform="translate(255.148 104.142)">
        <g id="Group_359" data-name="Group 359">
          <path id="Path_6484" data-name="Path 6484" class="cls-2" d="M1580.541,1081.339c-4.847-3.508-7.495-5.82-7.615-5.926l2.538-2.809c.553.493,56.367,49.137,133.437,41.745l.364,3.752C1647.165,1124.058,1598.6,1094.408,1580.541,1081.339Z" transform="translate(-1572.926 -1072.604)"/>
        </g>
      </g>
      <g id="Group_362" data-name="Group 362" transform="translate(278.372 123.176)">
        <g id="Group_361" data-name="Group 361">
          <path id="Path_6485" data-name="Path 6485" class="cls-2" d="M1679.211,1164.894c-18.928-18.333-25.262-37.481-27.242-50.315-2.154-13.971.181-23.506.281-23.906l3.692.912c-.091.367-8.729,37.047,25.929,70.613Z" transform="translate(-1651.059 -1090.673)"/>
        </g>
      </g>
    </g>
    <g id="Group_365" data-name="Group 365" transform="translate(1795.459 2308.059)">
      <path id="Path_6486" data-name="Path 6486" class="cls-3" d="M1613.155,981.3c12.093-5.023,14.079-10.326,12.094-15.025s-7.193-7.013-19.284-1.991c-22.027,9.15-29.078,22.08-29.078,22.08S1590.807,990.584,1613.155,981.3Z" transform="translate(-1576.887 -961.464)"/>
    </g>
  </g>
</svg>
