<svg xmlns="http://www.w3.org/2000/svg" width="26" height="26" viewBox="0 0 26 26">
  <defs>
    <style>
      .cls-1, .cls-2 {
        fill: #99886e;
      }

      .cls-1 {
        opacity: 0.2;
      }
    </style>
  </defs>
  <g id="Group_633" data-name="Group 633" transform="translate(-1245 -802)">
    <circle id="Ellipse_6" data-name="Ellipse 6" class="cls-1" cx="13" cy="13" r="13" transform="translate(1245 802)"/>
    <path id="Path_9043" data-name="Path 9043" class="cls-2" d="M8.271,2.39a.705.705,0,0,0-1.261,0L2.075,12.261a.705.705,0,0,0,.824.993l3.525-1.008a.705.705,0,0,0,.511-.678V8.346a.705.705,0,0,1,1.41,0v3.223a.705.705,0,0,0,.511.678l3.525,1.007a.705.705,0,0,0,.825-.993L8.272,2.39Z" transform="translate(1250 806.999)"/>
  </g>
</svg>
